<svg width="55" height="54" viewBox="0 0 55 54" fill="none" xmlns="http://www.w3.org/2000/svg">
<path d="M35.5024 6.45923H19.7776C14.2 6.45923 12.968 9.23683 12.2512 12.6416L9.71997 24.76H45.56L43.0288 12.6416C42.312 9.23683 41.08 6.45923 35.5024 6.45923Z" stroke="#202236" stroke-width="2.5" stroke-linecap="round" stroke-linejoin="round"/>
<path d="M50.0175 44.5168C50.2639 47.1376 48.1583 49.4 45.4703 49.4H41.2591C38.8399 49.4 38.5039 48.3696 38.0783 47.0928L37.6303 45.7488C37.0031 43.912 36.5999 42.68 33.3743 42.68H21.9055C18.6799 42.68 18.2095 44.0688 17.6495 45.7488L17.2015 47.0928C16.7759 48.3696 16.4399 49.4 14.0207 49.4H9.8095C7.1215 49.4 5.0159 47.1376 5.2623 44.5168L6.5167 30.8752C6.8303 27.5152 7.4799 24.76 13.3487 24.76H41.9311C47.7999 24.76 48.4495 27.5152 48.7631 30.8752L50.0175 44.5168Z" stroke="#202236" stroke-width="2.5" stroke-linecap="round" stroke-linejoin="round"/>
<path d="M9.71998 18.04H7.47998" stroke="#202236" stroke-width="2.5" stroke-linecap="round" stroke-linejoin="round"/>
<path d="M47.8001 18.04H45.5601" stroke="#202236" stroke-width="2.5" stroke-linecap="round" stroke-linejoin="round"/>
<path d="M27.6399 6.84009V11.3201" stroke="#202236" stroke-width="2.5" stroke-linecap="round" stroke-linejoin="round"/>
<path d="M24.2798 11.3201H30.9998" stroke="#202236" stroke-width="2.5" stroke-linecap="round" stroke-linejoin="round"/>
<path d="M14.2 33.7202H20.9199" stroke="#202236" stroke-width="2.5" stroke-linecap="round" stroke-linejoin="round"/>
<path d="M34.3599 33.7202H41.0799" stroke="#202236" stroke-width="2.5" stroke-linecap="round" stroke-linejoin="round"/>
</svg>
