<svg width="57" height="56" viewBox="0 0 57 56" fill="none" xmlns="http://www.w3.org/2000/svg">
<path d="M3.09351 51.3333H54.4268" stroke="#202236" stroke-width="2.5" stroke-miterlimit="10" stroke-linecap="round" stroke-linejoin="round"/>
<path d="M46.9136 51.3569V40.9502" stroke="#202236" stroke-width="2.5" stroke-miterlimit="10" stroke-linecap="round" stroke-linejoin="round"/>
<path d="M46.96 25.4102C44.1134 25.4102 41.8267 27.6969 41.8267 30.5435V35.8401C41.8267 38.6868 44.1134 40.9734 46.96 40.9734C49.8067 40.9734 52.0934 38.6868 52.0934 35.8401V30.5435C52.0934 27.6969 49.8067 25.4102 46.96 25.4102Z" stroke="#202236" stroke-width="2.5" stroke-miterlimit="10" stroke-linecap="round" stroke-linejoin="round"/>
<path d="M5.66016 51.3334V14.0701C5.66016 9.38015 7.99361 7.02344 12.6369 7.02344H27.1736C31.8169 7.02344 34.1268 9.38015 34.1268 14.0701V51.3334" stroke="#202236" stroke-width="2.5" stroke-miterlimit="10" stroke-linecap="round" stroke-linejoin="round"/>
<path d="M14.2935 19.25H25.8435" stroke="#202236" stroke-width="2.5" stroke-miterlimit="10" stroke-linecap="round" stroke-linejoin="round"/>
<path d="M14.2935 28H25.8435" stroke="#202236" stroke-width="2.5" stroke-miterlimit="10" stroke-linecap="round" stroke-linejoin="round"/>
<path d="M20.01 51.3333V42.5833" stroke="#202236" stroke-width="2.5" stroke-miterlimit="10" stroke-linecap="round" stroke-linejoin="round"/>
</svg>
