<svg width="60" height="56" viewBox="0 0 60 56" fill="none" xmlns="http://www.w3.org/2000/svg">
<mask id="path-1-inside-1_2101_4086" fill="white">
<path fill-rule="evenodd" clip-rule="evenodd" d="M18.4772 4.15908C18.9198 4.05504 19.3813 4 19.8556 4H39.8556C40.3234 4 40.7788 4.05355 41.2158 4.15485C41.9817 4.25283 42.7413 4.50121 43.4518 4.91143L56.6893 12.5541C59.5591 14.211 60.5423 17.8805 58.8855 20.7503L56.8855 24.2144C55.2286 27.0841 51.5591 28.0674 48.6893 26.4105L45.8556 24.7745V46C45.8556 49.3137 43.1693 52 39.8556 52H19.8556C16.5419 52 13.8556 49.3137 13.8556 46V41.8085V35.9729V30.1373V24.941L11.3103 26.4105C8.44057 28.0673 4.77103 27.0841 3.11417 24.2143L1.11417 20.7502C-0.542682 17.8805 0.440574 14.2109 3.31033 12.5541L16.6594 4.84697C17.2404 4.51157 17.8541 4.28436 18.4772 4.15908Z"/>
</mask>
<path d="M18.4772 4.15908L18.9699 6.61004L19.0098 6.60204L19.0493 6.59274L18.4772 4.15908ZM41.2158 4.15485L40.6513 6.59028L40.7739 6.61868L40.8986 6.63464L41.2158 4.15485ZM43.4518 4.91143L44.7018 2.74636L44.7018 2.74636L43.4518 4.91143ZM56.6893 12.5541L57.9393 10.3891L56.6893 12.5541ZM58.8855 20.7503L56.7204 19.5003V19.5003L58.8855 20.7503ZM56.8855 24.2144L59.0505 25.4644L56.8855 24.2144ZM48.6893 26.4105L47.4393 28.5756L48.6893 26.4105ZM45.8556 24.7745L47.1056 22.6094L43.3556 20.4443V24.7745H45.8556ZM13.8556 24.941H16.3556V20.6108L12.6056 22.7759L13.8556 24.941ZM11.3103 26.4105L12.5603 28.5755H12.5603L11.3103 26.4105ZM3.11417 24.2143L0.949109 25.4643H0.949109L3.11417 24.2143ZM1.11417 20.7502L3.27924 19.5002L1.11417 20.7502ZM3.31033 12.5541L2.06033 10.389L3.31033 12.5541ZM16.6594 4.84697L17.9094 7.01203V7.01203L16.6594 4.84697ZM19.8556 1.5C19.1873 1.5 18.5338 1.57762 17.9051 1.72542L19.0493 6.59274C19.3057 6.53246 19.5753 6.5 19.8556 6.5V1.5ZM39.8556 1.5H19.8556V6.5H39.8556V1.5ZM41.7803 1.71942C41.1595 1.57551 40.5148 1.5 39.8556 1.5V6.5C40.1321 6.5 40.3981 6.53158 40.6513 6.59028L41.7803 1.71942ZM44.7018 2.74636C43.6992 2.16753 42.6218 1.81434 41.5331 1.67506L40.8986 6.63464C41.3416 6.69132 41.7833 6.83489 42.2018 7.07649L44.7018 2.74636ZM57.9393 10.3891L44.7018 2.74636L42.2018 7.07649L55.4393 14.7192L57.9393 10.3891ZM61.0505 22.0003C63.3978 17.9348 62.0048 12.7363 57.9393 10.3891L55.4393 14.7192C57.1134 15.6857 57.6869 17.8263 56.7204 19.5003L61.0505 22.0003ZM59.0505 25.4644L61.0505 22.0003L56.7204 19.5003L54.7204 22.9644L59.0505 25.4644ZM47.4393 28.5756C51.5048 30.9228 56.7033 29.5299 59.0505 25.4644L54.7204 22.9644C53.7539 24.6384 51.6134 25.212 49.9393 24.2455L47.4393 28.5756ZM44.6056 26.9395L47.4393 28.5756L49.9393 24.2455L47.1056 22.6094L44.6056 26.9395ZM48.3556 46V24.7745H43.3556V46H48.3556ZM39.8556 54.5C44.55 54.5 48.3556 50.6944 48.3556 46H43.3556C43.3556 47.933 41.7886 49.5 39.8556 49.5V54.5ZM19.8556 54.5H39.8556V49.5H19.8556V54.5ZM11.3556 46C11.3556 50.6944 15.1612 54.5 19.8556 54.5V49.5C17.9226 49.5 16.3556 47.933 16.3556 46H11.3556ZM11.3556 41.8085V46H16.3556V41.8085H11.3556ZM11.3556 35.9729V41.8085H16.3556V35.9729H11.3556ZM11.3556 30.1373V35.9729H16.3556V30.1373H11.3556ZM11.3556 24.941V30.1373H16.3556V24.941H11.3556ZM12.5603 28.5755L15.1056 27.106L12.6056 22.7759L10.0603 24.2454L12.5603 28.5755ZM0.949109 25.4643C3.29632 29.5298 8.49484 30.9228 12.5603 28.5755L10.0603 24.2454C8.3863 25.2119 6.24573 24.6384 5.27924 22.9643L0.949109 25.4643ZM-1.05089 22.0002L0.949109 25.4643L5.27924 22.9643L3.27924 19.5002L-1.05089 22.0002ZM2.06033 10.389C-2.00515 12.7362 -3.3981 17.9347 -1.05089 22.0002L3.27924 19.5002C2.31274 17.8262 2.8863 15.6856 4.56033 14.7191L2.06033 10.389ZM15.4094 2.68191L2.06033 10.389L4.56033 14.7191L17.9094 7.01203L15.4094 2.68191ZM17.9845 1.70812C17.0985 1.88623 16.2286 2.20896 15.4094 2.68191L17.9094 7.01203C18.2521 6.81418 18.6096 6.68248 18.9699 6.61004L17.9845 1.70812Z" fill="#202236" mask="url(#path-1-inside-1_2101_4086)"/>
<path d="M28.4341 31.5372C24.4278 29.601 22.0058 29.0907 16.6552 31.5372" stroke="#202236" stroke-width="2.5" stroke-linecap="round"/>
<path d="M16.6553 31.5373C12.649 33.4735 10.227 33.9837 4.87639 31.5373" stroke="#202236" stroke-width="2.5" stroke-linecap="round"/>
<path d="M28.4341 36.0552C24.4278 34.1191 22.0058 33.6088 16.6552 36.0552" stroke="#202236" stroke-width="2.5" stroke-linecap="round"/>
<path d="M16.6553 36.0553C12.649 37.9915 10.227 38.5018 4.87639 36.0553" stroke="#202236" stroke-width="2.5" stroke-linecap="round"/>
<path d="M28.4341 40.5731C24.4278 38.6369 22.0058 38.1266 16.6552 40.5731" stroke="#202236" stroke-width="2.5" stroke-linecap="round"/>
<path d="M16.6553 40.5732C12.649 42.5093 10.227 43.0196 4.87639 40.5732" stroke="#202236" stroke-width="2.5" stroke-linecap="round"/>
<path d="M22.3093 6C27.5636 12.3417 33.6731 13.3173 39.4163 6" stroke="#202236" stroke-width="2.5" stroke-linecap="round"/>
</svg>
