<svg width="55" height="54" viewBox="0 0 55 54" fill="none" xmlns="http://www.w3.org/2000/svg">
<path d="M8.80273 35.6896L35.5707 8.92163" stroke="#202236" stroke-width="2.5" stroke-miterlimit="10" stroke-linecap="round" stroke-linejoin="round"/>
<path d="M24.8669 41.065L27.5549 38.377" stroke="#202236" stroke-width="2.5" stroke-miterlimit="10" stroke-linecap="round" stroke-linejoin="round"/>
<path d="M30.8962 35.0389L36.2498 29.6853" stroke="#202236" stroke-width="2.5" stroke-miterlimit="10" stroke-linecap="round" stroke-linejoin="round"/>
<path d="M48.3978 27.7121C47.8015 28.6868 46.9018 29.7374 45.6988 30.9404L30.8252 45.814C26.0764 50.5628 23.702 50.5852 18.998 45.8812L7.99962 34.8828C3.29563 30.1788 3.29563 27.8268 8.06682 23.0556L22.9404 8.18199C27.6892 3.4332 30.0636 3.4108 34.7676 8.11479L37.4778 10.825" stroke="#202236" stroke-width="2.5" stroke-linecap="round" stroke-linejoin="round"/>
<path d="M4.47998 49.3967H49.28" stroke="#202236" stroke-width="2.5" stroke-linecap="round" stroke-linejoin="round"/>
<circle cx="45.1846" cy="17.386" r="8.77401" stroke="#202236" stroke-width="1.68"/>
<path d="M45.1845 20.4206L45.1844 13.1591" stroke="#202236" stroke-width="1.68" stroke-linecap="round"/>
<path d="M45.187 20.4218L47.9114 17.6951" stroke="#202236" stroke-width="1.68" stroke-linecap="round"/>
<path d="M45.1858 20.4218L42.4614 17.6951" stroke="#202236" stroke-width="1.68" stroke-linecap="round"/>
</svg>
