<svg width="56" height="54" viewBox="0 0 56 54" fill="none" xmlns="http://www.w3.org/2000/svg">
<path d="M9.5625 35.6896L36.3305 8.92163" stroke="#202236" stroke-width="2.5" stroke-miterlimit="10" stroke-linecap="round" stroke-linejoin="round"/>
<path d="M25.627 41.065L28.315 38.377" stroke="#202236" stroke-width="2.5" stroke-miterlimit="10" stroke-linecap="round" stroke-linejoin="round"/>
<path d="M31.6562 35.0389L37.0099 29.6853" stroke="#202236" stroke-width="2.5" stroke-miterlimit="10" stroke-linecap="round" stroke-linejoin="round"/>
<path d="M49.1578 27.7121C48.5615 28.6868 47.6618 29.7374 46.4588 30.9404L31.5852 45.814C26.8364 50.5628 24.462 50.5852 19.758 45.8812L8.75963 34.8828C4.05564 30.1788 4.05563 27.8268 8.82683 23.0556L23.7004 8.18199C28.4492 3.4332 30.8236 3.4108 35.5276 8.11479L38.2378 10.825" stroke="#202236" stroke-width="2.5" stroke-linecap="round" stroke-linejoin="round"/>
<path d="M5.23999 49.3967H50.04" stroke="#202236" stroke-width="2.5" stroke-linecap="round" stroke-linejoin="round"/>
<circle cx="45.9446" cy="17.386" r="8.77401" stroke="#202236" stroke-width="1.68"/>
<path d="M41.3567 18.8953L43.8545 21.3931L50.5323 14.7153" stroke="#202236" stroke-width="1.68" stroke-linecap="round"/>
</svg>
