<svg width="56" height="56" viewBox="0 0 56 56" fill="none" xmlns="http://www.w3.org/2000/svg">
<g clip-path="url(#clip0_2101_4076)">
<rect x="16.4824" y="23.9766" width="23.0351" height="30.0832" rx="1.76538" stroke="#202236" stroke-width="2.5"/>
<mask id="path-2-inside-1_2101_4076" fill="white">
<path d="M16.9198 13.2101C16.261 13.2101 15.7211 12.6749 15.7837 12.0191C15.9877 9.8843 16.7376 7.83046 17.97 6.05922C19.4303 3.96053 21.4981 2.35922 23.8954 1.47055C26.2928 0.58189 28.9047 0.448483 31.3801 1.08827C33.8555 1.72805 36.0757 3.11035 37.7422 5.04934C39.4087 6.98833 40.4417 9.39105 40.7022 11.9345C40.9627 14.4779 40.4382 17.0402 39.1994 19.2767C37.9605 21.5133 36.0666 23.3169 33.7723 24.4452C31.8131 25.4087 29.2784 25.3303 27.0057 25.0476C26.392 24.9712 25.992 24.3718 26.1378 23.7708C26.2666 23.2394 26.7799 22.8984 27.3238 22.9546C29.1434 23.1427 31.1449 23.0788 32.7195 22.3044C34.5767 21.3911 36.1097 19.9311 37.1125 18.1208C38.1153 16.3104 38.5398 14.2364 38.3289 12.1776C38.1181 10.1188 37.282 8.17386 35.933 6.60433C34.584 5.03481 32.7869 3.9159 30.7831 3.39802C28.7794 2.88015 26.6652 2.98813 24.7246 3.70747C22.7841 4.4268 21.1103 5.72299 19.9283 7.42179C18.9742 8.79291 18.3775 10.3732 18.1827 12.02C18.1054 12.6742 17.5786 13.2101 16.9198 13.2101Z"/>
</mask>
<path d="M18.1827 12.02L20.6654 12.3136L18.1827 12.02ZM27.3238 22.9546L27.5808 20.4679L27.3238 22.9546ZM27.0057 25.0476L27.3143 22.5667L27.0057 25.0476ZM15.7837 12.0191L18.2724 12.2569L15.7837 12.0191ZM13.2951 11.7813C13.5398 9.22022 14.4394 6.75628 15.9179 4.63135L20.0221 7.4871C19.0358 8.90464 18.4357 10.5484 18.2724 12.2569L13.2951 11.7813ZM15.9179 4.63135C17.6698 2.11359 20.1505 0.192532 23.0265 -0.873577L24.7644 3.81468C22.8457 4.5259 21.1908 5.80747 20.0221 7.4871L15.9179 4.63135ZM23.0265 -0.873577C25.9025 -1.93969 29.036 -2.09973 32.0057 -1.3322L30.7545 3.50873C28.7734 2.9967 26.683 3.10347 24.7644 3.81468L23.0265 -0.873577ZM32.0057 -1.3322C34.9754 -0.564664 37.6389 1.09365 39.6382 3.41982L35.8463 6.67887C34.5125 5.12705 32.7357 4.02076 30.7545 3.50873L32.0057 -1.3322ZM39.6382 3.41982C41.6375 5.74598 42.8766 8.62847 43.1892 11.6798L38.2152 12.1892C38.0067 10.1536 37.18 8.23068 35.8463 6.67887L39.6382 3.41982ZM43.1892 11.6798C43.5017 14.7311 42.8725 17.8049 41.3863 20.4881L37.0125 18.0653C38.0039 16.2754 38.4237 14.2248 38.2152 12.1892L43.1892 11.6798ZM41.3863 20.4881C39.9001 23.1712 37.628 25.335 34.8756 26.6886L32.6691 22.2018C34.5053 21.2988 36.021 19.8553 37.0125 18.0653L41.3863 20.4881ZM34.8756 26.6886C32.1987 28.0051 29.0029 27.8153 26.6971 27.5284L27.3143 22.5667C29.5538 22.8453 31.4276 22.8123 32.6691 22.2018L34.8756 26.6886ZM27.5808 20.4679C29.2507 20.6405 30.679 20.5219 31.6163 20.061L33.8228 24.5478C31.6107 25.6357 29.0361 25.6449 27.0667 25.4414L27.5808 20.4679ZM31.6163 20.061C33.0153 19.373 34.1701 18.2732 34.9256 16.9094L39.2994 19.3321C38.0492 21.5891 36.138 23.4092 33.8228 24.5478L31.6163 20.061ZM34.9256 16.9094C35.681 15.5456 36.0008 13.9832 35.8419 12.4323L40.8159 11.9228C41.0788 14.4895 40.5496 17.0751 39.2994 19.3321L34.9256 16.9094ZM35.8419 12.4323C35.6831 10.8813 35.0532 9.41621 34.037 8.23386L37.8289 4.97481C39.5107 6.93151 40.553 9.35617 40.8159 11.9228L35.8419 12.4323ZM34.037 8.23386C33.0208 7.05151 31.667 6.20861 30.1576 5.81849L31.4087 0.977558C33.9067 1.62318 36.1472 3.01811 37.8289 4.97481L34.037 8.23386ZM30.1576 5.81849C28.6481 5.42836 27.0554 5.50971 25.5936 6.0516L23.8557 1.36334C26.2749 0.466557 28.9107 0.331932 31.4087 0.977558L30.1576 5.81849ZM25.5936 6.0516C24.1317 6.59348 22.8708 7.56993 21.9804 8.84966L17.8761 5.99392C19.3498 3.87605 21.4365 2.26011 23.8557 1.36334L25.5936 6.0516ZM21.9804 8.84966C21.2617 9.88253 20.8121 11.073 20.6654 12.3136L15.7 11.7264C15.9428 9.67346 16.6868 7.70329 17.8761 5.99392L21.9804 8.84966ZM20.6654 12.3136C20.4611 14.0418 19.0231 15.7101 16.9198 15.7101V10.7101C16.134 10.7101 15.7497 11.3067 15.7 11.7264L20.6654 12.3136ZM23.7082 23.1814C24.1496 21.3619 25.8689 20.2909 27.5808 20.4679L27.0667 25.4414C27.691 25.5059 28.3837 25.117 28.5673 24.3601L23.7082 23.1814ZM26.6971 27.5284C24.5506 27.2614 23.2225 25.1839 23.7082 23.1814L28.5673 24.3601C28.7615 23.5597 28.2334 22.681 27.3143 22.5667L26.6971 27.5284ZM18.2724 12.2569C18.3653 11.2851 17.5705 10.7101 16.9198 10.7101V15.7101C14.9516 15.7101 13.0769 14.0647 13.2951 11.7813L18.2724 12.2569Z" fill="#202236" mask="url(#path-2-inside-1_2101_4076)"/>
<path d="M36.4317 19.4564L40.3244 11.062L40.7675 12.4938V26.7438L37.9331 23.8287L32.4045 23.5609L36.4317 19.4564Z" fill="#202236"/>
<path d="M34.6624 40.2005C34.6624 43.7434 31.7903 46.6156 28.2474 46.6156C24.7044 46.6156 21.8323 43.7434 21.8323 40.2005C21.8323 36.6575 24.7044 33.7854 28.2474 33.7854C31.7903 33.7854 34.6624 36.6575 34.6624 40.2005Z" stroke="#202236" stroke-width="2.5"/>
<path d="M31.7405 40.5693H24.7542" stroke="#202236" stroke-width="2.5" stroke-linecap="round"/>
</g>
<defs>
<clipPath id="clip0_2101_4076">
<rect width="56" height="56" fill="white"/>
</clipPath>
</defs>
</svg>
