<svg width="57" height="56" viewBox="0 0 57 56" fill="none" xmlns="http://www.w3.org/2000/svg">
<path d="M7.77441 4.22999C7.77441 3.18838 8.6188 2.34399 9.66041 2.34399H47.8597C48.9013 2.34399 49.7457 3.18838 49.7457 4.22999V14.7211V51.7699C49.7457 52.8115 48.9013 53.6559 47.8597 53.6559H9.66041C8.61881 53.6559 7.77441 52.8115 7.77441 51.7699V14.7211V4.22999Z" stroke="#202236" stroke-width="2.5"/>
<rect x="11.7698" y="7.81006" width="12.4138" height="3.136" rx="1.568" fill="#202236"/>
<circle cx="1.568" cy="1.568" r="1.568" transform="matrix(-1 0 0 1 38.6943 7.81006)" fill="#202236"/>
<circle cx="1.568" cy="1.568" r="1.568" transform="matrix(-1 0 0 1 43.4758 7.81006)" fill="#202236"/>
<path d="M39.9604 32.8661C39.9604 39.0516 34.9461 44.0659 28.7606 44.0659C22.5751 44.0659 17.5608 39.0516 17.5608 32.8661C17.5608 26.6806 22.5751 21.6663 28.7606 21.6663C34.9461 21.6663 39.9604 26.6806 39.9604 32.8661Z" stroke="#202236" stroke-width="2.5"/>
<path d="M38.6945 27.0354C33.6948 29.7918 32.852 34.3619 38.6945 38.6966" stroke="#202236" stroke-width="2.5"/>
</svg>
