<svg width="48" height="48" viewBox="0 0 48 48" fill="none" xmlns="http://www.w3.org/2000/svg">
<path d="M32.3998 20C32.3998 20 31.9998 22 25.9998 30C20.1998 37.6 28.5998 43.2 29.5998 44H29.7998C30.9998 43 46.1998 33.4 32.3998 20Z" stroke="#202236" stroke-width="2.5" stroke-miterlimit="10" stroke-linecap="round" stroke-linejoin="round"/>
<path d="M27.5999 15.5999C27.5999 10.9999 25.7999 6.79989 23.9999 4.39989C23.3999 3.79989 22.3999 3.99989 22.1999 4.79989C21.3999 7.79989 18.9999 14.1999 13.1999 21.7999C5.79986 31.3999 12.5999 41.7999 19.5999 43.7999C23.3999 44.7999 18.5999 41.7999 17.9999 35.5999C17.3999 27.7999 27.5999 21.9999 27.5999 15.5999Z" stroke="#202236" stroke-width="2.5" stroke-miterlimit="10" stroke-linecap="round" stroke-linejoin="round"/>
</svg>
