<svg width="56" height="56" viewBox="0 0 56 56" fill="none" xmlns="http://www.w3.org/2000/svg">
<path d="M50.54 24.3599L48.2533 34.1133C46.2933 42.5366 42.42 45.9433 35.14 45.2433C33.9733 45.1499 32.7133 44.9399 31.36 44.6133L27.44 43.6799C17.71 41.3699 14.7 36.5633 16.9867 26.8099L19.2733 17.0333C19.74 15.0499 20.3 13.3233 21 11.8999C23.73 6.25327 28.3733 4.7366 36.1667 6.57994L40.0633 7.48994C49.84 9.7766 52.8267 14.6066 50.54 24.3599Z" stroke="#292D32" stroke-width="2.5" stroke-linecap="round" stroke-linejoin="round"/>
<path d="M35.1401 45.2432C33.6934 46.2232 31.8734 47.0399 29.6567 47.7632L25.9701 48.9766C16.7067 51.9632 11.8301 49.4666 8.82006 40.2032L5.8334 30.9866C2.84673 21.7232 5.32006 16.8232 14.5834 13.8366L18.2701 12.6232C19.2267 12.3199 20.1367 12.0632 21.0001 11.8999C20.3001 13.3232 19.7401 15.0499 19.2734 17.0332L16.9867 26.8099C14.7001 36.5632 17.7101 41.3699 27.4401 43.6799L31.3601 44.6132C32.7134 44.9399 33.9734 45.1499 35.1401 45.2432Z" stroke="#292D32" stroke-width="2.5" stroke-linecap="round" stroke-linejoin="round"/>
<path d="M29.4934 19.9033L40.8101 22.7733" stroke="#292D32" stroke-width="2.5" stroke-linecap="round" stroke-linejoin="round"/>
<path d="M27.2068 28.9333L33.9735 30.66" stroke="#292D32" stroke-width="2.5" stroke-linecap="round" stroke-linejoin="round"/>
</svg>
