<svg width="55" height="54" viewBox="0 0 55 54" fill="none" xmlns="http://www.w3.org/2000/svg">
<path d="M35.2624 10.0088H19.5376C13.96 10.0088 12.728 12.2477 12.0112 14.9921L9.47998 24.76H45.32L42.7888 14.9921C42.072 12.2477 40.84 10.0088 35.2624 10.0088Z" stroke="#202236" stroke-width="2.5" stroke-linecap="round" stroke-linejoin="round"/>
<path d="M49.7775 44.5168C50.0239 47.1376 47.9183 49.4 45.2303 49.4H41.0191C38.5999 49.4 38.2639 48.3696 37.8383 47.0928L37.3903 45.7488C36.7631 43.912 36.3599 42.68 33.1343 42.68H21.6655C18.4399 42.68 17.9695 44.0688 17.4095 45.7488L16.9615 47.0928C16.5359 48.3696 16.1999 49.4 13.7807 49.4H9.56951C6.88151 49.4 4.77591 47.1376 5.02231 44.5168L6.27671 30.8752C6.59031 27.5152 7.23991 24.76 13.1087 24.76H41.6911C47.5599 24.76 48.2095 27.5152 48.5231 30.8752L49.7775 44.5168Z" stroke="#202236" stroke-width="2.5" stroke-linecap="round" stroke-linejoin="round"/>
<path d="M9.47999 18.04H7.23999" stroke="#202236" stroke-width="2.5" stroke-linecap="round" stroke-linejoin="round"/>
<path d="M47.5603 18.04H45.3203" stroke="#202236" stroke-width="2.5" stroke-linecap="round" stroke-linejoin="round"/>
<path d="M27.4001 10.5168V14.9968" stroke="#202236" stroke-width="2.5" stroke-linecap="round" stroke-linejoin="round"/>
<path d="M24.0403 14.9968H30.7603" stroke="#202236" stroke-width="2.5" stroke-linecap="round" stroke-linejoin="round"/>
<path d="M20.0198 9.30886L21.4175 4.03027H33.6802L34.7804 9.30886" stroke="#202236" stroke-width="2.5" stroke-linecap="round" stroke-linejoin="round"/>
<path d="M13.9602 33.7202H20.6802" stroke="#202236" stroke-width="2.5" stroke-linecap="round" stroke-linejoin="round"/>
<path d="M34.1201 33.7202H40.8401" stroke="#202236" stroke-width="2.5" stroke-linecap="round" stroke-linejoin="round"/>
</svg>
