<svg width="56" height="56" viewBox="0 0 56 56" fill="none" xmlns="http://www.w3.org/2000/svg">
<path d="M44.2633 51.3334H11.5967C4.59668 51.3334 4.59668 48.1834 4.59668 44.3334V42.0001C4.59668 40.7167 5.64668 39.6667 6.93001 39.6667H48.93C50.2133 39.6667 51.2633 40.7167 51.2633 42.0001V44.3334C51.2633 48.1834 51.2633 51.3334 44.2633 51.3334Z" stroke="#202236" stroke-width="2.5" stroke-linecap="round" stroke-linejoin="round"/>
<path d="M48.3468 30.3334V39.6667H7.63013V30.3334C7.63013 21.3734 13.9535 13.8834 22.3768 12.0867C23.6368 11.8067 24.9435 11.6667 26.2968 11.6667H29.6801C31.0335 11.6667 32.3635 11.8067 33.6235 12.0867C42.0468 13.9067 48.3468 21.3734 48.3468 30.3334Z" stroke="#202236" stroke-width="2.5" stroke-linecap="round" stroke-linejoin="round"/>
<path d="M33.8334 10.5001C33.8334 11.0601 33.7634 11.5734 33.6234 12.0867C32.3634 11.8067 31.0334 11.6667 29.6801 11.6667H26.2967C24.9434 11.6667 23.6367 11.8067 22.3767 12.0867C22.2367 11.5734 22.1667 11.0601 22.1667 10.5001C22.1667 7.28008 24.7801 4.66675 28.0001 4.66675C31.2201 4.66675 33.8334 7.28008 33.8334 10.5001Z" stroke="#202236" stroke-width="2.5" stroke-linecap="round" stroke-linejoin="round"/>
<path d="M35 25.6667H21" stroke="#202236" stroke-width="2.5" stroke-linecap="round" stroke-linejoin="round"/>
</svg>
