<svg width="29" height="29" viewBox="0 0 29 29" fill="none" xmlns="http://www.w3.org/2000/svg">
<g clip-path="url(#clip0_32_2095)">
<path d="M25.5667 1.83984H3.18329C1.63474 1.83984 0.375 3.09958 0.375 4.64813V14.9225C0.375 16.4709 1.63474 17.7306 3.18329 17.7306H25.5667C27.1153 17.7306 28.375 16.4709 28.375 14.9225V4.64813C28.375 3.09958 27.1153 1.83984 25.5667 1.83984ZM23.1908 16.09H5.5592V14.6237C5.5592 14.0358 6.03729 13.5575 6.6254 13.5575H22.1248C22.7127 13.5575 23.191 14.0358 23.191 14.6237V16.09H23.1908ZM26.7344 14.9225C26.7344 15.5662 26.2106 16.09 25.5667 16.09H24.8314V14.6237C24.8314 13.1313 23.6172 11.9169 22.1246 11.9169H6.6254C5.13281 11.9169 3.91858 13.1311 3.91858 14.6237V16.09H3.18329C2.53943 16.09 2.01562 15.5662 2.01562 14.9225V4.64813C2.01562 4.00427 2.53943 3.48047 3.18329 3.48047H25.5667C26.2106 3.48047 26.7344 4.00427 26.7344 4.64813V14.9225Z" fill="black"/>
<path d="M12.7757 6.47827H15.9677C16.4208 6.47827 16.788 6.11105 16.788 5.65796C16.788 5.20508 16.4208 4.83765 15.9677 4.83765H12.7757C12.3226 4.83765 11.9554 5.20508 11.9554 5.65796C11.9554 6.11105 12.3226 6.47827 12.7757 6.47827Z" fill="black"/>
<path d="M17.778 7.49292H10.9707C10.5176 7.49292 10.1504 7.86014 10.1504 8.31323C10.1504 8.76633 10.5176 9.13354 10.9707 9.13354H17.778C18.2311 9.13354 18.5983 8.76633 18.5983 8.31323C18.5983 7.86014 18.2311 7.49292 17.778 7.49292Z" fill="black"/>
<path d="M14.375 18.875C13.9219 18.875 13.5547 19.2424 13.5547 19.6953V24.884C13.5547 25.3371 13.9219 25.7043 14.375 25.7043C14.8279 25.7043 15.1953 25.3371 15.1953 24.884V19.6953C15.1953 19.2422 14.8279 18.875 14.375 18.875Z" fill="black"/>
<path d="M11.0959 18.875C10.6428 18.875 10.2756 19.2424 10.2756 19.6953V24.9376C10.2756 25.7103 9.64926 26.3388 8.87936 26.3388C8.42627 26.3388 8.05905 26.706 8.05905 27.1591C8.05905 27.6122 8.42627 27.9794 8.87936 27.9794C10.554 27.9794 11.9162 26.615 11.9162 24.9376V19.6953C11.9162 19.2422 11.549 18.875 11.0959 18.875Z" fill="black"/>
<path d="M19.866 26.3388C19.0961 26.3388 18.4698 25.7103 18.4698 24.9376V19.6953C18.4698 19.2424 18.1026 18.875 17.6495 18.875C17.1964 18.875 16.8292 19.2424 16.8292 19.6953V24.9376C16.8292 26.615 18.1914 27.9794 19.866 27.9794C20.3191 27.9794 20.6863 27.6122 20.6863 27.1591C20.6863 26.706 20.3191 26.3388 19.866 26.3388Z" fill="black"/>
</g>
<defs>
<clipPath id="clip0_32_2095">
<rect width="28" height="28" fill="white" transform="translate(0.375 0.910156)"/>
</clipPath>
</defs>
</svg>
