<svg width="29" height="29" viewBox="0 0 29 29" fill="none" xmlns="http://www.w3.org/2000/svg">
<g clip-path="url(#clip0_32_2103)">
<path d="M23.2446 0.908203H5.00543C3.55066 0.908203 2.36719 2.09167 2.36719 3.54645V26.27C2.36719 27.7247 3.55066 28.9082 5.00543 28.9082H23.2446C24.6993 28.9082 25.8828 27.7247 25.8828 26.27V3.54645C25.8828 2.09167 24.6993 0.908203 23.2446 0.908203ZM13.0932 11.6603H15.135C15.5994 13.0206 16.0139 14.105 16.3215 15.1274H11.9108C12.1058 14.5508 12.4547 13.5325 13.0932 11.6603ZM12.4218 9.89597V8.80905C12.4218 8.74091 12.4773 8.68536 12.5455 8.68536H15.7045C15.7727 8.68536 15.8282 8.74091 15.8282 8.80905V9.89597C15.8282 9.96432 15.7727 10.0197 15.7045 10.0197H12.5455C12.4773 10.0197 12.4218 9.96432 12.4218 9.89597ZM16.7188 16.768C16.8756 17.6765 16.923 18.6284 16.8209 19.7756H11.4156C11.3586 18.9427 11.359 17.981 11.5186 16.768H16.7188ZM11.5893 21.4162H16.6188C16.5306 22.26 16.4877 23.3388 16.5748 24.1318H11.6406C11.7805 23.1297 11.6974 22.3043 11.5893 21.4162ZM18.2255 24.1318C17.8393 22.3083 19.0509 19.1973 18.231 15.8238C18.1744 15.4497 17.8967 14.6642 16.7515 11.3153C17.1862 10.9938 17.4688 10.4772 17.4688 9.89597V8.80905C17.4688 7.83621 16.6774 7.04474 15.7045 7.04474H12.5455C11.5726 7.04474 10.7812 7.83621 10.7812 8.80905V9.89597C10.7812 10.4668 11.0535 10.975 11.475 11.2975C10.1317 15.1049 9.41718 16.7413 9.84656 20.6468C9.8974 21.4773 10.224 22.6516 9.97601 24.1318H4.00781V5.80081H24.2422V24.1318H18.2255ZM5.00543 2.54883H23.2446C23.7946 2.54883 24.2422 2.99637 24.2422 3.54645V4.16019H4.00781V3.54645C4.00781 2.99637 4.45535 2.54883 5.00543 2.54883ZM23.2446 27.2676H5.00543C4.45535 27.2676 4.00781 26.82 4.00781 26.27V25.7724H24.2422V26.27C24.2422 26.82 23.7946 27.2676 23.2446 27.2676Z" fill="black"/>
</g>
<defs>
<clipPath id="clip0_32_2103">
<rect width="28" height="28" fill="white" transform="translate(0.125 0.908203)"/>
</clipPath>
</defs>
</svg>
