<svg width="29" height="29" viewBox="0 0 29 29" fill="none" xmlns="http://www.w3.org/2000/svg">
<g clip-path="url(#clip0_2_3541)">
<path d="M28.375 21.6918V17.3535C28.375 16.1124 27.3652 15.1026 26.1241 15.1026H4.99887V4.32724C4.99887 3.34671 5.79654 2.54883 6.77686 2.54883C7.66873 2.54883 8.40936 3.20935 8.53561 4.06705H7.73431C7.28143 4.06705 6.914 4.43427 6.914 4.88736C6.914 5.34045 7.28143 5.70767 7.73431 5.70767H11.0156C11.4687 5.70767 11.8359 5.34045 11.8359 4.88736C11.8359 4.43427 11.4687 4.06705 11.0156 4.06705H10.1854C10.0521 2.30295 8.57428 0.908203 6.77686 0.908203C4.89185 0.908203 3.35825 2.44202 3.35825 4.32724V15.1026H2.62595C1.3848 15.1026 0.375 16.1124 0.375 17.3535V21.6918C0.375 23.5074 1.65396 25.0303 3.35825 25.4063V25.769C3.35825 26.5953 2.6864 27.2676 1.86032 27.2676C1.40723 27.2676 1.04001 27.6348 1.04001 28.0879C1.04001 28.541 1.40723 28.9082 1.86032 28.9082C3.59088 28.9082 4.99887 27.5 4.99887 25.769V25.4954H23.7511V25.769C23.7511 27.5 25.1591 28.9082 26.8897 28.9082C27.3428 28.9082 27.71 28.541 27.71 28.0879C27.71 27.6348 27.3428 27.2676 26.8897 27.2676C26.0636 27.2676 25.3918 26.5953 25.3918 25.769V25.4063C27.096 25.0303 28.375 23.5074 28.375 21.6918ZM2.01562 21.6918V17.3535C2.01562 17.0171 2.28949 16.7432 2.62595 16.7432H26.1243C26.4607 16.7432 26.7344 17.0171 26.7344 17.3535V21.6918C26.7344 22.8845 25.7641 23.8547 24.5714 23.8547H4.17856C2.9859 23.8547 2.01562 22.8845 2.01562 21.6918Z" fill="black"/>
<path d="M10.1954 7.76611C10.1954 7.31302 9.82819 6.9458 9.37509 6.9458C8.92221 6.9458 8.55478 7.31302 8.55478 7.76611V9.19803C8.55478 9.65112 8.92221 10.0183 9.37509 10.0183C9.82819 10.0183 10.1954 9.65112 10.1954 9.19803V7.76611Z" fill="black"/>
<path d="M9.37509 11.0615C8.92221 11.0615 8.55478 11.429 8.55478 11.8818V13.314C8.55478 13.7671 8.92221 14.1343 9.37509 14.1343C9.82819 14.1343 10.1954 13.7671 10.1954 13.314V11.8818C10.1954 11.429 9.82819 11.0615 9.37509 11.0615Z" fill="black"/>
</g>
<defs>
<clipPath id="clip0_2_3541">
<rect width="28" height="28" fill="white" transform="translate(0.375 0.908203)"/>
</clipPath>
</defs>
</svg>
