<svg width="29" height="29" viewBox="0 0 29 29" fill="none" xmlns="http://www.w3.org/2000/svg">
<path fill-rule="evenodd" clip-rule="evenodd" d="M24.5478 26.2063L16.5369 18.1954L18.5154 16.2088L26.5343 24.2197L24.5478 26.2063ZM6.87039 25.9723L4.87575 23.9858L13.145 15.7326L16.0603 12.8174L18.1922 10.7016C18.3456 10.532 18.4264 10.2575 18.3376 10.0233L18.273 9.82138L18.2245 9.64372V9.62757C17.8773 8.3355 18.0792 7.02727 18.6929 5.96938C19.3066 4.91149 20.3403 4.07972 21.6324 3.71632C22.3672 3.52251 23.1263 3.50636 23.837 3.66787C24.0873 3.71632 24.3296 3.78093 24.5395 3.86976L24.3457 3.91821L22.5207 4.41081C22.2946 4.47542 22.1088 4.645 22.0523 4.87919L21.5597 6.69617L21.0752 8.51316C21.0267 8.73119 21.0752 8.98153 21.2528 9.14304L22.5772 10.4836L23.8854 11.7757C24.0389 11.9614 24.2973 12.0421 24.5395 11.9775L26.3646 11.493L26.5826 11.4446C26.4211 11.6303 26.2515 11.808 26.0577 11.9614C25.5247 12.4378 24.8626 12.8174 24.1035 13.0031C23.5382 13.1808 22.9567 13.2131 22.4157 13.1646C21.8504 13.1162 21.3174 12.9547 20.8087 12.7205C20.5583 12.5832 20.2272 12.6074 20.0092 12.8174L6.87039 25.9723ZM8.36441 10.0233C8.12215 9.77298 7.7426 9.75683 7.48418 9.95872C7.3146 10.0718 7.15309 10.1687 6.9835 10.2575H6.97543C6.79777 10.3383 6.61203 10.4513 6.44245 10.5159C6.32939 10.5482 6.24056 10.6371 6.17596 10.7178C5.98215 10.952 5.81256 11.2104 5.71565 11.4931C5.62682 11.7272 5.58645 11.9614 5.5703 12.236L4.81928 12.987L3.57565 11.7596L3.51912 11.6949L3.51105 11.6788V11.6626H3.4949H3.47875L3.44645 11.6142L2.23512 10.419L2.99422 9.65992C3.26878 9.65992 3.51912 9.62762 3.74524 9.56302C4.11671 9.47419 4.42358 9.29653 4.65777 9.06234C4.73045 8.99774 4.78697 8.90083 4.83543 8.812C4.8758 8.65049 4.97271 8.49706 5.06154 8.3194L5.06962 8.28709C5.16652 8.14981 5.25535 7.97215 5.38456 7.78641C5.55415 7.50377 5.51377 7.12423 5.25535 6.93041L5.05347 6.71238L7.04003 4.74196L7.27422 4.97615C7.50841 5.19419 7.86373 5.22649 8.12215 5.04075C8.36441 4.89539 8.58245 4.75811 8.80856 4.64505H8.82471C9.03468 4.532 9.25271 4.44317 9.47075 4.37856C9.56766 4.34626 9.63226 4.28166 9.70494 4.2332C10.4479 3.57101 11.207 3.28837 11.958 3.33683C12.3052 3.35298 12.6525 3.46603 12.9997 3.60332C12.8948 3.63562 12.7817 3.70022 12.6606 3.73252C12.0226 4.04747 11.5219 4.54815 11.1181 5.24264C11.0939 5.30724 11.0778 5.37185 11.0616 5.4203C10.997 5.67064 10.9082 5.96943 10.779 6.26822L10.7628 6.30053C10.6175 6.58317 10.464 6.88196 10.2541 7.1969C10.0845 7.47147 10.1329 7.81872 10.3348 8.03675L14.6391 12.341L12.6686 14.3114L8.36441 10.0233ZM19.4601 15.2643L20.6311 14.0934C21.156 14.2952 21.7132 14.4406 22.2865 14.4891C23.0053 14.5537 23.7401 14.5052 24.4508 14.2952C25.4117 14.0449 26.2516 13.5604 26.9622 12.9547C27.6729 12.3087 28.2382 11.5092 28.5773 10.6209C28.7146 10.2737 28.545 9.8941 28.2059 9.75682C28.0686 9.70837 27.9232 9.70837 27.7859 9.74067L26.0174 10.2171L24.5638 10.5886L23.5221 9.53878L22.4561 8.4809L22.8437 7.04346L23.2314 5.60603L24.6769 5.21033L26.4373 4.74195C26.8007 4.64504 27.0107 4.28165 26.9299 3.9021C26.8815 3.78097 26.8007 3.65176 26.6877 3.571C25.9528 2.97342 25.0645 2.56157 24.1035 2.35968C23.2071 2.16587 22.23 2.18202 21.2852 2.44044C19.6459 2.87651 18.3215 3.95055 17.5543 5.30723C16.771 6.66391 16.5045 8.33554 16.9325 9.95871L16.9486 10.0233L16.9648 10.0395L15.592 11.3961L11.6592 7.47146C11.7723 7.2615 11.8772 7.05961 11.9741 6.85772L11.9903 6.80927C12.1518 6.47818 12.2649 6.13093 12.3375 5.79984C12.5798 5.40414 12.8705 5.1215 13.2259 4.94384C13.6135 4.77425 14.1303 4.70965 14.7602 4.7581C14.9621 4.7904 15.164 4.7258 15.3174 4.56429C15.5758 4.2978 15.5758 3.88595 15.2932 3.61946C14.316 2.67463 13.2016 2.09319 12.0388 2.01244C10.9728 1.94783 9.9149 2.29508 8.90547 3.15108C8.67935 3.23991 8.44517 3.33682 8.22713 3.46602C8.08984 3.52255 7.96871 3.58716 7.86373 3.65176L7.50841 3.32066C7.25807 3.07032 6.83815 3.07032 6.56358 3.32066L3.64833 6.25206C3.38992 6.51048 3.38992 6.9304 3.64833 7.18882L3.97943 7.51991L3.89867 7.6572L3.88252 7.6895C3.80984 7.85101 3.72101 8.00444 3.64833 8.1821C3.58373 8.22248 3.51105 8.25478 3.41414 8.27093C3.23648 8.31939 3.02652 8.33554 2.78425 8.31939C2.59044 8.30324 2.40471 8.36784 2.25935 8.5132L0.821912 9.94256C0.555422 10.2171 0.563497 10.637 0.821912 10.8955L2.50161 12.5671L2.52584 12.5913L2.57429 12.6236L2.59044 12.6559L2.61467 12.6721L4.34282 14.4083C4.59316 14.6586 5.02116 14.6586 5.27958 14.4083L6.72509 12.9709C6.8543 12.8497 6.92698 12.6559 6.91082 12.4379C6.89467 12.2441 6.92698 12.0906 6.95928 11.9453C6.99965 11.8564 7.05618 11.7595 7.10464 11.6626C7.27422 11.598 7.45188 11.5254 7.60532 11.4284L7.79913 11.3315L11.7238 15.2643L3.47875 23.5255C3.21225 23.7759 3.21225 24.2039 3.47875 24.4542L6.40207 27.3775C6.66048 27.644 7.08848 27.644 7.33882 27.3775L15.592 19.1405L24.0712 27.6279C24.3458 27.8782 24.7576 27.8782 25.0241 27.6279L27.9474 24.6965C28.2059 24.438 28.2059 24.0181 27.9474 23.7597L19.4601 15.2643Z" fill="#202236"/>
</svg>
