<svg width="24" height="24" viewBox="0 0 24 24" fill="none" xmlns="http://www.w3.org/2000/svg">
<rect width="24" height="24" transform="translate(0.000732422 0.000183105)" fill="#585DE4"/>
<path fill-rule="evenodd" clip-rule="evenodd" d="M4.85483 8.00018C3.83084 8.00018 3.00073 8.83029 3.00073 9.85429V14.8573C3.00073 16.8621 3.00073 17.8645 3.46056 18.5963C3.70034 18.9779 4.02302 19.3006 4.40464 19.5404C5.13645 20.0002 6.13883 20.0002 8.14359 20.0002H15.8579C17.8626 20.0002 18.865 20.0002 19.5968 19.5404C19.9784 19.3006 20.3011 18.9779 20.5409 18.5963C21.0007 17.8645 21.0007 16.8621 21.0007 14.8573V9.85428C21.0007 8.83029 20.1706 8.00018 19.1466 8.00018C18.4443 8.00018 17.8023 7.6034 17.4883 6.97526L16.6674 5.33352L16.6674 5.33347C16.5574 5.11359 16.5025 5.00364 16.4401 4.908C16.1148 4.409 15.584 4.08096 14.9923 4.01317C14.8788 4.00018 14.7559 4.00018 14.51 4.00018H9.49144C9.24557 4.00018 9.12263 4.00018 9.00921 4.01317C8.41742 4.08096 7.88663 4.409 7.56135 4.908C7.499 5.00364 7.44402 5.1136 7.33407 5.33352L6.51319 6.97526C6.19912 7.6034 5.55712 8.00018 4.85483 8.00018ZM14.0007 13.0002C14.0007 14.1048 13.1053 15.0002 12.0007 15.0002C10.8962 15.0002 10.0007 14.1048 10.0007 13.0002C10.0007 11.8956 10.8962 11.0002 12.0007 11.0002C13.1053 11.0002 14.0007 11.8956 14.0007 13.0002ZM16.0007 13.0002C16.0007 15.2093 14.2099 17.0002 12.0007 17.0002C9.79159 17.0002 8.00073 15.2093 8.00073 13.0002C8.00073 10.791 9.79159 9.00018 12.0007 9.00018C14.2099 9.00018 16.0007 10.791 16.0007 13.0002Z" fill="white"/>
</svg>
