<svg width="29" height="29" viewBox="0 0 29 29" fill="none" xmlns="http://www.w3.org/2000/svg">
<g clip-path="url(#clip0_2_3548)">
<path d="M26.0436 3.15381H24.8087V2.8494C24.8087 1.77914 23.938 0.908203 22.8675 0.908203H2.59061C1.52036 0.908203 0.649414 1.77914 0.649414 2.8494V13.1042C0.649414 14.1744 1.52036 15.0453 2.59061 15.0453H10.5543V20.0871H6.49777V19.886C6.49777 18.2642 5.17822 16.9449 3.5564 16.9449C1.93478 16.9449 0.615234 18.2642 0.615234 19.886V25.9668C0.615234 27.5887 1.93478 28.9082 3.5564 28.9082C5.17822 28.9082 6.49777 27.5887 6.49777 25.967V25.766H10.5754C13.9464 25.766 16.6887 23.0235 16.6887 19.6528V15.0453H22.8673C23.9377 15.0453 24.8087 14.1744 24.8087 13.1042V12.5895H26.0436C27.4615 12.5895 28.615 11.436 28.615 10.0179V5.72562C28.6152 4.30737 27.4617 3.15381 26.0436 3.15381ZM2.29004 13.1042V2.8494C2.29004 2.68362 2.42484 2.54883 2.59061 2.54883H10.5543V13.4047H2.59061C2.42484 13.4047 2.29004 13.2697 2.29004 13.1042ZM4.85715 25.967C4.85715 26.6842 4.27374 27.2676 3.5564 27.2676C2.83926 27.2676 2.25586 26.6842 2.25586 25.967V19.886C2.25586 19.1689 2.83926 18.5855 3.5564 18.5855C4.27374 18.5855 4.85715 19.1689 4.85715 19.886V25.967ZM15.048 19.6528C15.048 22.119 13.0417 24.1254 10.5756 24.1254H6.49777V21.7277H10.6348C11.4951 21.7277 12.1949 21.0279 12.1949 20.1676V15.0453H15.048V19.6528ZM23.1681 13.1042C23.1681 13.2697 23.0333 13.4047 22.8675 13.4047H12.1949V2.54883H22.8675C23.0333 2.54883 23.1681 2.68362 23.1681 2.8494V13.1042ZM26.9746 10.0179C26.9746 10.5313 26.557 10.9487 26.0436 10.9487H24.8087V4.79443H26.0436C26.557 4.79443 26.9746 5.21207 26.9746 5.7254V10.0179Z" fill="black"/>
</g>
<defs>
<clipPath id="clip0_2_3548">
<rect width="28" height="28" fill="white" transform="translate(0.615234 0.908203)"/>
</clipPath>
</defs>
</svg>
