<svg width="29" height="29" viewBox="0 0 29 29" fill="none" xmlns="http://www.w3.org/2000/svg">
<g clip-path="url(#clip0_32_2106)">
<path d="M25.9557 1.8082C25.6344 1.53668 25.2127 1.42132 24.7981 1.49118L20.3455 2.24292C19.4549 2.39331 18.7519 3.01559 18.4731 3.82928H16.9916V3.03674C16.9916 1.8631 16.0378 0.908203 14.8652 0.908203H12.5763C11.4037 0.908203 10.4497 1.8631 10.4497 3.03674V3.7936H7.91524C4.81323 3.7936 2.28949 6.32033 2.28949 9.42619C2.28949 9.87907 2.65671 10.2465 3.1098 10.2465C3.56289 10.2465 3.93011 9.87907 3.93011 9.42619C3.93011 7.22502 5.71792 5.43423 7.91524 5.43423H10.4497V7.25578C8.33223 8.41661 6.89327 10.6671 6.89327 13.2475V26.0136C6.89327 27.6097 8.19188 28.9081 9.78807 28.9081H17.6534C19.2496 28.9081 20.5482 27.6097 20.5482 26.0136V13.2475C20.5482 10.6671 19.1093 8.41661 16.9919 7.25578V5.4699H18.499C18.7935 6.24834 19.4812 6.83858 20.3455 6.98448L24.7981 7.73644C24.8775 7.74989 24.957 7.7563 25.0362 7.7563C25.3703 7.7563 25.6959 7.63881 25.9557 7.41942C26.277 7.14769 26.4613 6.75035 26.4613 6.3293V2.89831C26.4613 2.47726 26.277 2.07992 25.9557 1.8082ZM18.9074 20.8883H8.53389V16.6272H18.9074V20.8883ZM17.6534 27.2675H9.78786C9.09636 27.2675 8.53389 26.7051 8.53389 26.0136V22.5287H18.9074V26.0136C18.9074 26.7051 18.3449 27.2675 17.6534 27.2675ZM18.9074 13.2475V14.9866H8.53389V13.2475C8.53389 10.3875 10.8607 8.0605 13.7206 8.0605C16.5806 8.0605 18.9074 10.3875 18.9074 13.2475ZM13.7206 6.41988C13.159 6.41988 12.613 6.48824 12.0903 6.61663V3.03674C12.0903 2.76779 12.3084 2.54882 12.5763 2.54882H14.8652C15.1331 2.54882 15.3512 2.76779 15.3512 3.03674V6.61684C14.8285 6.48824 14.2825 6.41988 13.7206 6.41988ZM24.8207 6.07637L20.6187 5.36672C20.2507 5.30477 19.9836 4.98797 19.9836 4.6137C19.9836 4.23943 20.2507 3.92285 20.6187 3.86068L24.8207 3.15124V6.07637Z" fill="black"/>
</g>
<defs>
<clipPath id="clip0_32_2106">
<rect width="28" height="28" fill="white" transform="translate(0.375 0.908203)"/>
</clipPath>
</defs>
</svg>
