<svg width="16" height="14" viewBox="0 0 16 14" fill="none" xmlns="http://www.w3.org/2000/svg">
<path d="M1.70889 7.59015L7.50273 13.0329C7.64788 13.1692 7.72045 13.2374 7.79937 13.272C7.92726 13.328 8.07273 13.328 8.20061 13.272C8.27953 13.2374 8.35211 13.1692 8.49725 13.0329L14.2911 7.59016C15.9212 6.05881 16.1192 3.53881 14.7482 1.7717L14.4904 1.43943C12.8502 -0.674536 9.55802 -0.320008 8.40555 2.09469C8.24276 2.43578 7.75723 2.43578 7.59444 2.09469C6.44197 -0.320008 3.14976 -0.674535 1.50961 1.43943L1.25182 1.7717C-0.119216 3.53881 0.0787416 6.0588 1.70889 7.59015Z" fill="#FC5F5F"/>
</svg>
