<svg width="20" height="20" viewBox="0 0 20 20" fill="none" xmlns="http://www.w3.org/2000/svg">
<path d="M18.0249 12.2917C18.0249 13.0334 17.8166 13.7334 17.4499 14.3334C16.7666 15.4834 15.5083 16.25 14.0666 16.25C12.6249 16.25 11.3666 15.4751 10.6833 14.3334C10.3166 13.7417 10.1083 13.0334 10.1083 12.2917C10.1083 10.1084 11.8833 8.33337 14.0666 8.33337C16.2499 8.33337 18.0249 10.1084 18.0249 12.2917Z" stroke="#595C68" stroke-width="1.25" stroke-miterlimit="10" stroke-linecap="round" stroke-linejoin="round"/>
<path d="M15.55 12.275H12.5917" stroke="#595C68" stroke-width="1.25" stroke-miterlimit="10" stroke-linecap="round" stroke-linejoin="round"/>
<path d="M14.0667 10.8334V13.7917" stroke="#595C68" stroke-width="1.25" stroke-miterlimit="10" stroke-linecap="round" stroke-linejoin="round"/>
<path d="M17.2416 3.34998V5.19995C17.2416 5.87495 16.8166 6.71663 16.4 7.14163L14.9333 8.43329C14.6583 8.36662 14.3666 8.33329 14.0666 8.33329C11.8833 8.33329 10.1083 10.1083 10.1083 12.2916C10.1083 13.0333 10.3166 13.7333 10.6833 14.3333C10.9916 14.85 11.4166 15.2916 11.9333 15.6083V15.8916C11.9333 16.4 11.6 17.0749 11.175 17.3249L9.99997 18.0833C8.9083 18.7583 7.39163 17.9999 7.39163 16.6499V12.1916C7.39163 11.6 7.04997 10.8416 6.71663 10.425L3.51663 7.05827C3.09997 6.63327 2.7583 5.87497 2.7583 5.37497V3.43329C2.7583 2.42496 3.51663 1.66663 4.44163 1.66663H15.5583C16.4833 1.66663 17.2416 2.42498 17.2416 3.34998Z" stroke="#595C68" stroke-width="1.25" stroke-miterlimit="10" stroke-linecap="round" stroke-linejoin="round"/>
</svg>
