<svg width="25" height="25" viewBox="0 0 25 25" fill="none" xmlns="http://www.w3.org/2000/svg">
<path d="M22.0555 10.1216H21.25V10.0801H12.25V14.0801H17.9015C17.077 16.4086 14.8615 18.0801 12.25 18.0801C8.9365 18.0801 6.25 15.3936 6.25 12.0801C6.25 8.76658 8.9365 6.08008 12.25 6.08008C13.7795 6.08008 15.171 6.65708 16.2305 7.59958L19.059 4.77108C17.273 3.10658 14.884 2.08008 12.25 2.08008C6.7275 2.08008 2.25 6.55758 2.25 12.0801C2.25 17.6026 6.7275 22.0801 12.25 22.0801C17.7725 22.0801 22.25 17.6026 22.25 12.0801C22.25 11.4096 22.181 10.7551 22.0555 10.1216Z" fill="#FFC107"/>
<path d="M3.40295 7.42558L6.68845 9.83508C7.57745 7.63408 9.73045 6.08008 12.25 6.08008C13.7795 6.08008 15.171 6.65708 16.2305 7.59958L19.059 4.77108C17.273 3.10658 14.884 2.08008 12.25 2.08008C8.40895 2.08008 5.07795 4.24858 3.40295 7.42558Z" fill="#FF3D00"/>
<path d="M12.25 22.0801C14.833 22.0801 17.18 21.0916 18.9545 19.4841L15.8595 16.8651C14.8218 17.6543 13.5538 18.0811 12.25 18.0801C9.64903 18.0801 7.44053 16.4216 6.60853 14.1071L3.34753 16.6196C5.00253 19.8581 8.36353 22.0801 12.25 22.0801Z" fill="#4CAF50"/>
<path d="M22.0555 10.1216H21.25V10.0801H12.25V14.0801H17.9015C17.5071 15.1883 16.7967 16.1567 15.858 16.8656L15.8595 16.8646L18.9545 19.4836C18.7355 19.6826 22.25 17.0801 22.25 12.0801C22.25 11.4096 22.181 10.7551 22.0555 10.1216Z" fill="#1976D2"/>
</svg>
