<svg width="24" height="24" viewBox="0 0 24 24" fill="none" xmlns="http://www.w3.org/2000/svg">
<path fill-rule="evenodd" clip-rule="evenodd" d="M2.97631 5.19848C2 6.17479 2 7.74614 2 10.8888V13.1111C2 16.2538 2 17.8251 2.97631 18.8014C3.95262 19.7777 5.52397 19.7777 8.66667 19.7777H15.3333C18.476 19.7777 20.0474 19.7777 21.0237 18.8014C22 17.8251 22 16.2538 22 13.1111V10.8888C22 7.74614 22 6.17479 21.0237 5.19848C20.0474 4.22217 18.476 4.22217 15.3333 4.22217H8.66667C5.52397 4.22217 3.95262 4.22217 2.97631 5.19848ZM19.283 9.59117C19.7936 9.25078 19.9316 8.56092 19.5912 8.05033C19.2508 7.53975 18.5609 7.40177 18.0503 7.74217L12 11.7757L5.94967 7.74217C5.43908 7.40177 4.74923 7.53975 4.40883 8.05033C4.06844 8.56092 4.20641 9.25078 4.717 9.59117L10.7673 13.6247C11.5138 14.1224 12.4862 14.1224 13.2327 13.6247L19.283 9.59117Z" fill="#595C68"/>
</svg>
