<svg width="20" height="20" viewBox="0 0 20 20" fill="none" xmlns="http://www.w3.org/2000/svg">
<path d="M11.4472 18.2067C12.525 18.0167 13.5547 17.6162 14.4777 17.0282C15.4006 16.4402 16.1987 15.6762 16.8264 14.7798C17.4541 13.8833 17.8991 12.872 18.136 11.8036C18.3728 10.7352 18.3969 9.63061 18.2069 8.55289C18.0169 7.47517 17.6164 6.44543 17.0284 5.52246C16.4404 4.5995 15.6764 3.80138 14.78 3.17369C13.8835 2.546 12.8722 2.10102 11.8038 1.86416C10.7354 1.6273 9.63082 1.6032 8.55309 1.79323C7.47537 1.98326 6.44563 2.3837 5.52266 2.9717C4.5997 3.55969 3.80159 4.32372 3.17389 5.22016C2.5462 6.1166 2.10122 7.12789 1.86436 8.1963C1.6275 9.26471 1.6034 10.3693 1.79343 11.447C1.98346 12.5248 2.38391 13.5545 2.9719 14.4775C3.55989 15.4004 4.32392 16.1985 5.22036 16.8262C6.1168 17.4539 7.12809 17.8989 8.1965 18.1358C9.26491 18.3726 10.3695 18.3967 11.4472 18.2067L11.4472 18.2067Z" stroke="#595C68" stroke-width="2"/>
<path d="M10 10L10 15" stroke="#595C68" stroke-width="2" stroke-linecap="square"/>
<path d="M10 5.83337L10 5.00004" stroke="#595C68" stroke-width="2" stroke-linecap="square"/>
</svg>
