<svg width="218" height="79" viewBox="0 0 218 79" fill="none" xmlns="http://www.w3.org/2000/svg">
<g clip-path="url(#clip0_3266_120)">
<path d="M36.8701 15.8301V61.4101H41.6901V15.8301H36.8701Z" fill="#4B5F74"/>
<path d="M39.2798 74.1706C22.1698 74.1706 7.54979 61.3906 5.27979 44.4406L5.67979 44.3906C7.91979 61.1406 22.3698 73.7706 39.2798 73.7706C56.1898 73.7706 70.6398 61.1406 72.8798 44.3906L73.2798 44.4406C71.0098 61.3906 56.3998 74.1706 39.2798 74.1706Z" fill="#CABB9F"/>
<path d="M72.8798 35.3405C70.6398 18.5905 56.1898 5.96054 39.2798 5.96054C22.3698 5.96054 7.91979 18.5905 5.67979 35.3405L5.27979 35.2905C7.54979 18.3405 22.1598 5.56055 39.2798 5.56055C56.3998 5.56055 71.0098 18.3405 73.2798 35.2905L72.8798 35.3405Z" fill="#CABB9F"/>
<path d="M9.6001 39.8703L7.0201 38.4003L5.5601 35.8203L4.1801 38.4003L1.6001 39.8703L4.1801 41.3303L5.5601 43.9103L7.0201 41.3303L9.6001 39.8703Z" fill="#CABB9F"/>
<path d="M68.9399 39.8703L71.5199 38.4003L72.9799 35.8203L74.3599 38.4003L76.9399 39.8703L74.3599 41.3303L72.9799 43.9103L71.5199 41.3303L68.9399 39.8703Z" fill="#CABB9F"/>
<path d="M35.5102 43.2706V44.4506H35.7902C35.7902 44.4506 35.8302 44.3906 35.8502 44.3706C36.1602 43.9906 36.4902 43.6206 36.8302 43.2706H35.5102ZM59.6802 57.2506C58.8602 58.1406 57.9202 58.8906 56.9002 59.5106C59.4702 60.1306 62.2602 59.0006 62.2602 59.0006C61.2702 58.6506 60.4302 58.0406 59.6802 57.2406V57.2506ZM32.2402 53.5006C30.2702 54.7606 28.5802 55.3806 27.2702 55.6906C27.2402 56.8206 27.2102 57.9306 27.1802 59.0106H32.3502C32.3002 57.2406 32.2702 55.3906 32.2402 53.5006ZM57.8302 54.7806C57.5702 54.3706 57.3202 53.9506 57.0702 53.5206C54.9202 49.8506 52.7302 45.5206 47.8202 43.8906C50.0102 43.3006 51.8002 42.2906 53.1902 40.9806C52.8302 40.8706 52.4402 40.7706 52.0402 40.7006C51.6902 40.6406 50.9702 40.5606 50.1402 40.5606C49.7602 40.5606 49.3802 40.5806 49.0302 40.6106C47.6302 42.0406 45.7702 43.0006 43.4602 43.2206C43.3302 43.2206 43.2102 43.2206 43.0902 43.2206C42.7302 43.2206 42.3802 43.2206 42.0002 43.2706H32.1602V40.7206C32.1602 40.0206 32.1602 39.3206 32.1602 38.6306C32.1602 37.9106 32.1602 37.1906 32.1602 36.4806C30.8502 35.5306 29.1802 34.8206 27.4402 34.4506C27.4402 35.0006 27.4402 35.5606 27.4402 36.1106C27.4402 36.5806 27.4402 37.0506 27.4402 37.5106C27.4602 42.1106 27.4202 46.7306 27.3602 51.1306C27.3602 51.6206 27.3402 52.1006 27.3402 52.5706C27.3402 53.1406 27.3202 53.7006 27.3102 54.2606C28.5902 53.9206 30.2702 53.2406 32.2302 51.8706C32.2302 51.2106 32.2102 50.5506 32.2102 49.8906C32.2102 49.3206 32.1902 48.7406 32.1902 48.1606C32.1702 46.9306 32.1702 45.7006 32.1502 44.4506H43.7902C49.5502 45.3406 51.0102 53.0306 53.2102 56.5906C53.4802 57.0306 53.7702 57.4106 54.0802 57.7006C54.0802 57.7206 54.1102 57.7406 54.1402 57.7606C54.5002 58.2206 54.9102 58.5806 55.3502 58.8606C56.6502 58.1706 57.8402 57.3006 58.8202 56.1906C58.4802 55.7506 58.1602 55.2706 57.8502 54.7706L57.8302 54.7806ZM32.1602 34.8406C32.1802 30.0006 32.2302 25.2606 32.3002 20.9506L35.5202 20.9306H36.8802L40.7902 20.9006C41.1002 20.9006 41.4102 20.9006 41.7002 20.9206C42.1702 20.9506 42.6302 21.0006 43.0602 21.0806C50.7902 22.3506 53.4202 30.2706 51.5402 36.2906C51.4002 36.7506 51.2402 37.1906 51.0302 37.6206C50.7902 38.1706 50.4902 38.6906 50.1602 39.1906C51.0902 39.1906 51.8702 39.2806 52.2702 39.3606C52.9802 39.4906 53.6202 39.6606 54.2002 39.8706C54.5602 39.4406 54.8702 38.9906 55.1502 38.5106C55.3802 38.1206 55.5902 37.7106 55.7802 37.2906C58.8802 30.2306 54.6802 20.3706 43.0502 19.6806C42.6202 19.6606 42.1802 19.6406 41.7302 19.6406H27.1602C27.2802 23.7906 27.3502 28.3506 27.3902 33.0406C29.1002 33.3606 30.7302 33.9706 32.1302 34.8306L32.1602 34.8406ZM35.5202 43.2706V44.4506H35.8002C35.8002 44.4506 35.8402 44.3906 35.8602 44.3706C36.1702 43.9906 36.5002 43.6206 36.8402 43.2706H35.5202Z" fill="#4B5F74"/>
<path d="M41.6898 40.8006V42.8306C41.5098 42.9706 41.3398 43.1206 41.1598 43.2606C40.7198 43.6406 40.2798 44.0306 39.8498 44.4406C39.3798 44.8706 38.9398 45.3306 38.5298 45.8006C38.3898 45.9506 38.2598 46.1006 38.1298 46.2606C37.6998 46.7706 37.2798 47.2506 36.8598 47.7106C36.3898 48.2206 35.9498 48.6806 35.4998 49.1106C34.8298 49.7706 34.1798 50.3506 33.5498 50.8406C33.0798 51.2206 32.6398 51.5506 32.1998 51.8606C30.2298 53.2306 28.5498 53.9106 27.2798 54.2506C26.7498 54.3906 26.2898 54.4706 25.9198 54.5106C25.2798 54.5806 24.8498 54.5506 24.6798 54.5306C19.5498 54.5106 14.2798 50.5706 14.2798 43.9906C14.2798 38.0106 18.3798 34.1406 24.7298 34.1406C25.1598 34.1406 25.5998 34.1606 26.0498 34.2106C26.5098 34.2606 26.9598 34.3306 27.4098 34.4206C29.1598 34.7906 30.8298 35.4906 32.1298 36.4506C32.6398 36.8406 33.1098 37.2606 33.4898 37.7306C34.2698 38.6706 34.7398 39.7506 34.7398 40.9406H33.1398C33.1398 40.1006 32.7598 39.3006 32.1198 38.6106C31.0698 37.4506 29.2998 36.5506 27.4098 36.0906C26.9598 35.9806 26.4998 35.8906 26.0498 35.8406C25.6098 35.7806 25.1598 35.7506 24.7298 35.7506C20.4598 35.7506 15.8798 37.9206 15.8798 44.0006C15.8798 49.5906 20.3798 52.9306 24.7298 52.9306H24.8498C24.8498 52.9306 25.2398 52.9906 25.9398 52.8806C26.3098 52.8206 26.7698 52.7206 27.3098 52.5506C28.5498 52.1606 30.2198 51.3906 32.1798 49.8706C32.6198 49.5306 33.0598 49.1606 33.5298 48.7406C34.1598 48.1806 34.8198 47.5406 35.4998 46.8106C35.7998 46.4906 36.0998 46.1506 36.4098 45.7906C36.5598 45.6206 36.7098 45.4506 36.8698 45.2606C36.8698 45.2406 36.8898 45.2406 36.8998 45.2206C37.1198 44.9506 37.3598 44.6806 37.5998 44.4306C37.9798 44.0106 38.3598 43.6206 38.7498 43.2506C39.2598 42.7606 39.7798 42.3006 40.2798 41.8906C40.7598 41.4906 41.2298 41.1206 41.6798 40.7906L41.6898 40.8006Z" fill="#4B5F74"/>
<path d="M61.4496 48.4309C61.4496 51.1909 60.7696 53.3509 59.6496 55.0609C59.3896 55.4709 59.0996 55.8509 58.7896 56.2009C57.7996 57.3109 56.6196 58.1809 55.3196 58.8709C54.8596 59.1109 54.3896 59.3309 53.9096 59.5309C50.1996 61.0609 45.9096 61.3709 43.0596 61.5009C42.8296 61.5209 42.5996 61.5209 42.3896 61.5309C41.4896 61.5709 40.7096 61.6109 40.2496 61.6709C38.8496 61.8709 37.7596 62.3209 36.9696 62.7709C35.8996 63.3809 35.3696 64.0009 35.3596 64.0109L34.1196 62.9809C34.1196 62.9809 34.6196 62.4009 35.5096 61.7909C35.8896 61.5409 36.3396 61.2709 36.8696 61.0209C37.7196 60.6209 38.7596 60.2709 40.0096 60.0909C40.4396 60.0309 40.9996 59.9909 41.6896 59.9609C41.8896 59.9609 42.0996 59.9409 42.3196 59.9309C42.5496 59.9309 42.7996 59.9109 43.0596 59.9009C45.7496 59.7609 49.4696 59.5009 52.7196 58.2809C53.1796 58.1109 53.6296 57.9209 54.0596 57.7109C55.5196 57.0009 56.8296 56.0609 57.8296 54.7809C58.1396 54.4009 58.4196 53.9709 58.6596 53.5209C59.4096 52.1309 59.8596 50.4409 59.8596 48.3609C59.8796 48.0509 60.2296 42.9309 55.4996 40.4309C55.1096 40.2209 54.6796 40.0409 54.2196 39.8709C53.6296 39.6609 52.9896 39.4809 52.2896 39.3609C51.8896 39.2809 51.1096 39.1909 50.1796 39.1909C49.6096 39.1909 48.9796 39.2209 48.3596 39.3009C47.4096 39.4309 46.4396 39.6809 45.6396 40.1309C44.8896 40.5509 44.0096 41.1209 43.0696 41.8009V39.8309C43.9296 39.2609 44.5796 38.8809 44.8396 38.7309C46.2396 37.9409 47.9896 37.6609 49.5196 37.6009C50.0696 37.5809 50.5896 37.5809 51.0396 37.6009C51.6896 37.6309 52.2296 37.7009 52.5696 37.7609C53.5396 37.9409 54.3996 38.1909 55.1696 38.5009C55.6096 38.6809 56.0196 38.8709 56.3996 39.0809C61.9296 42.1109 61.4796 48.3409 61.4696 48.4209L61.4496 48.4309Z" fill="#4B5F74"/>
<path d="M39.28 78.9203C17.75 78.9203 0.22998 61.4003 0.22998 39.8703C0.22998 18.3403 17.75 0.820312 39.28 0.820312C60.81 0.820312 78.33 18.3403 78.33 39.8703C78.33 61.4003 60.81 78.9203 39.28 78.9203ZM39.28 1.62031C18.19 1.62031 1.02998 18.7803 1.02998 39.8703C1.02998 60.9603 18.19 78.1203 39.28 78.1203C60.37 78.1203 77.53 60.9603 77.53 39.8703C77.53 18.7803 60.37 1.62031 39.28 1.62031Z" fill="#4B5F74"/>
<path d="M87.3398 38.3796L88.7698 37.5396C88.7198 36.4096 88.6498 34.7696 88.6498 32.7196C88.6498 30.6696 88.7198 29.3396 88.7698 28.3196L87.3398 27.4796C87.2598 27.4296 87.2598 27.3496 87.3398 27.3496H93.3398C96.6198 27.3496 97.4598 28.6396 97.4598 30.0896C97.4598 31.1796 96.9698 31.8896 96.3998 32.3796L95.1898 32.9496L98.0798 37.5496L99.2198 38.3696C99.3398 38.4496 99.3198 38.4996 99.1998 38.5196H95.2198L95.1898 38.0196L92.5698 33.5196C92.2498 33.4996 91.8498 33.4896 91.5998 33.4396V37.5596L92.9798 38.3996C93.0598 38.4496 93.0798 38.5296 92.9798 38.5296H87.3498C87.2498 38.5296 87.2698 38.4496 87.3498 38.3996L87.3398 38.3796ZM93.8098 27.8096C93.5398 27.6796 93.1898 27.5896 92.7998 27.5396C92.4498 27.4896 91.9898 27.4596 91.5898 27.4596V33.3096C91.8398 33.3396 92.1998 33.3296 92.4598 33.2896C93.8398 33.1696 94.3798 32.1996 94.3798 30.2996C94.3798 29.2896 94.1798 28.2196 93.8098 27.8096Z" fill="#4B5F74"/>
<path d="M99.3096 32.9301C99.3096 29.7001 101.36 27.0801 105.28 27.0801C109.2 27.0801 111.21 29.7001 111.21 32.9301C111.21 36.1601 109.18 38.7601 105.28 38.7601C101.38 38.7601 99.3096 36.1701 99.3096 32.9301ZM102.55 32.9301C102.55 36.6801 103.27 38.2701 105.27 38.4801C105.94 38.5501 106.35 38.5101 106.82 38.4501C107.53 37.6401 107.96 35.0901 107.96 32.9401C107.96 29.6101 107.42 27.6101 105.3 27.3901C104.63 27.3201 104.22 27.3401 103.69 27.4101C102.97 28.2701 102.55 30.9401 102.55 32.9401V32.9301Z" fill="#4B5F74"/>
<path d="M114.3 31.3503C113.71 30.2203 113.14 29.0103 112.8 28.3203L111.57 27.4603C111.5 27.4103 111.5 27.3303 111.59 27.3303H117.1C117.18 27.3303 117.17 27.4103 117.1 27.4603L115.86 28.2503C116.18 28.7903 116.73 29.8603 117.15 30.7003C117.57 31.5403 118.23 32.9003 118.58 33.6903L120.98 28.3103L119.62 27.4503C119.54 27.4003 119.54 27.3203 119.64 27.3203H122.85C122.95 27.3203 122.93 27.4003 122.87 27.4503L121.53 28.3103L118.67 33.8703C118.67 34.6803 118.67 36.2103 118.6 37.5003L120.36 38.3603C120.44 38.3903 120.46 38.4903 120.36 38.4903H114.04C113.94 38.4903 113.96 38.3903 114.04 38.3603L115.82 37.5003C115.75 36.2903 115.75 34.7803 115.75 33.9903C115.36 33.3203 114.79 32.3103 114.29 31.3303L114.3 31.3503Z" fill="#4B5F74"/>
<path d="M121.15 38.5091C121.05 38.5091 121.08 38.4291 121.17 38.3791L122.7 37.4691L127.83 27.2891C127.9 27.1391 128 27.1591 128.05 27.2691C128.47 28.1391 129.31 30.1591 130.29 32.5791C131.2 34.8491 131.75 36.3591 132.16 37.5391L133.47 38.3791C133.57 38.4491 133.55 38.5091 133.45 38.5091H127.74C127.64 38.5091 127.67 38.4291 127.76 38.3791L129.26 37.5391C128.96 36.8291 128.57 35.8091 128.08 34.5191H124.53L123.24 37.4791L124.84 38.3891C124.91 38.4191 124.91 38.5191 124.82 38.5191H121.17L121.15 38.5091ZM127.99 34.2691C127.69 33.3791 126.88 31.2291 126.53 30.1191L124.61 34.2691H127.99Z" fill="#4B5F74"/>
<path d="M134.07 38.4096L135.5 37.5396C135.45 36.4096 135.38 34.7696 135.38 32.7196C135.38 30.6696 135.45 29.3396 135.5 28.3196L134.07 27.4496C133.99 27.3996 133.99 27.3496 134.07 27.3496H139.88C139.96 27.3496 139.96 27.3996 139.88 27.4496L138.32 28.3196V38.1796L138.5 38.3996L141.1 38.1696L143.25 35.0796C143.33 34.9596 143.43 34.9796 143.42 35.0996L143.15 38.1896C143.13 38.3096 142.91 38.5296 142.8 38.5296H134.06C133.96 38.5296 133.98 38.4796 134.06 38.4296L134.07 38.4096Z" fill="#4B5F74"/>
<path d="M147.23 38.4096L148.66 37.5396C148.61 36.4096 148.54 34.7696 148.54 32.7196C148.54 30.6696 148.61 29.3396 148.66 28.3196L147.23 27.4496C147.15 27.3996 147.15 27.3496 147.23 27.3496H153.04C153.12 27.3496 153.12 27.3996 153.04 27.4496L151.48 28.3196V38.1796L151.66 38.3996L154.26 38.1696L156.41 35.0796C156.49 34.9596 156.59 34.9796 156.58 35.0996L156.31 38.1896C156.29 38.3096 156.07 38.5296 155.96 38.5296H147.22C147.12 38.5296 147.14 38.4796 147.22 38.4296L147.23 38.4096Z" fill="#4B5F74"/>
<path d="M156.76 31.8401C157.57 31.2901 158.05 30.4101 158.05 29.5401C157.26 29.4901 156.81 28.9901 156.81 28.3601C156.81 27.5901 157.45 27.0801 158.24 27.0801C159.15 27.0801 159.72 27.6201 159.72 28.6401C159.72 30.4901 157.94 31.4601 156.83 31.9701C156.8 31.9701 156.71 31.8501 156.76 31.8401Z" fill="#4B5F74"/>
<path d="M158.22 38.5091C158.12 38.5091 158.15 38.4291 158.24 38.3791L159.77 37.4691L164.9 27.2891C164.97 27.1391 165.07 27.1591 165.12 27.2691C165.54 28.1391 166.38 30.1591 167.36 32.5791C168.27 34.8491 168.82 36.3591 169.23 37.5391L170.54 38.3791C170.64 38.4491 170.62 38.5091 170.52 38.5091H164.81C164.71 38.5091 164.74 38.4291 164.83 38.3791L166.33 37.5391C166.03 36.8291 165.64 35.8091 165.15 34.5191H161.6L160.31 37.4791L161.91 38.3891C161.98 38.4191 161.98 38.5191 161.89 38.5191H158.24L158.22 38.5091ZM165.06 34.2691C164.76 33.3791 163.95 31.2291 163.6 30.1191L161.68 34.2691H165.06Z" fill="#4B5F74"/>
<path d="M178.91 27.4698L174.31 27.6898L172.24 30.3798C172.11 30.5698 172.02 30.5698 172.04 30.3798L172.36 27.5698C172.38 27.4998 172.55 27.3398 172.65 27.3398L178.92 27.3598L181.49 27.3398C181.69 27.3398 181.69 27.4198 181.62 27.5398C181 28.6198 179.28 31.1998 178.09 32.8998C177.03 34.4298 174.91 37.2198 174.02 38.3798L179.2 38.1598L181.42 35.0198C181.5 34.8998 181.62 34.8898 181.61 35.0198L181.29 38.2498C181.29 38.3198 181.05 38.5198 181 38.5198L174.03 38.4998L171.39 38.5198C171.22 38.5198 171.22 38.4698 171.29 38.3298C171.86 37.3198 173.84 34.3298 174.89 32.8298C176.1 31.0998 178.03 28.5798 178.92 27.4698H178.91Z" fill="#4B5F74"/>
<path d="M191.15 27.4701C191.08 27.4401 191.07 27.3401 191.15 27.3401H194.7C194.78 27.3401 194.78 27.4201 194.7 27.4701L193.31 28.3601C193.34 29.4901 193.29 32.3401 193.24 33.4701C193.19 34.7301 193.12 35.8601 192.75 36.6801C192.03 38.2101 190.72 38.7601 188.87 38.7601C187.02 38.7601 185.56 38.3401 184.79 37.3501C184.17 36.5801 183.83 35.5001 183.8 33.4301C183.77 31.7501 183.87 29.4501 183.93 28.3001L182.47 27.4601C182.37 27.3901 182.39 27.3301 182.47 27.3301H188.27C188.35 27.3301 188.35 27.4101 188.27 27.4601L186.86 28.3001C186.78 29.4901 186.73 32.5301 186.73 33.8801C186.75 35.1701 186.98 36.0801 187.39 36.7001C187.93 37.4901 188.8 37.8101 189.81 37.8101C190.65 37.8101 191.41 37.7101 192.09 37.3201C192.65 36.6101 192.8 35.4701 192.83 33.8401C192.85 32.7001 192.88 29.5001 192.85 28.3401L191.17 27.4501L191.15 27.4701Z" fill="#4B5F74"/>
<path d="M195.6 38.3796L197.03 37.5396C196.98 36.4096 196.91 34.7696 196.91 32.7196C196.91 30.6696 196.98 29.3396 197.03 28.3196L195.6 27.4796C195.52 27.4296 195.52 27.3496 195.6 27.3496H201.6C204.88 27.3496 205.72 28.6396 205.72 30.0896C205.72 31.1796 205.23 31.8896 204.66 32.3796L203.45 32.9496L206.34 37.5496L207.48 38.3696C207.6 38.4496 207.58 38.4996 207.46 38.5196H203.48L203.45 38.0196L200.83 33.5196C200.51 33.4996 200.11 33.4896 199.86 33.4396V37.5596L201.24 38.3996C201.32 38.4496 201.34 38.5296 201.24 38.5296H195.61C195.51 38.5296 195.53 38.4496 195.61 38.3996L195.6 38.3796ZM202.07 27.8096C201.8 27.6796 201.45 27.5896 201.06 27.5396C200.71 27.4896 200.25 27.4596 199.85 27.4596V33.3096C200.1 33.3396 200.46 33.3296 200.72 33.2896C202.1 33.1696 202.64 32.1996 202.64 30.2996C202.64 29.2896 202.44 28.2196 202.07 27.8096Z" fill="#4B5F74"/>
<path d="M212.31 38.4896L207.87 38.5096C207.77 38.5096 207.79 38.4296 207.87 38.3796L209.3 37.5396C209.25 36.4096 209.18 34.7696 209.18 32.7196C209.18 30.6696 209.25 29.3396 209.3 28.3196L207.87 27.4796C207.79 27.4296 207.79 27.3496 207.87 27.3496L212.12 27.3696L216.41 27.3496C216.48 27.3496 216.65 27.5196 216.65 27.5796V30.1896C216.65 30.2896 216.58 30.2896 216.52 30.1896L214.77 27.6996L212.13 27.4796V32.7396L214.5 32.5896L215.59 31.1396C215.66 31.0596 215.72 31.0596 215.72 31.1696V34.4996C215.72 34.5796 215.64 34.5796 215.59 34.5196L214.48 33.0396L212.13 32.8496V38.1796L212.32 38.3796L215.08 38.1596L217.1 35.1996C217.17 35.0996 217.27 35.1196 217.25 35.2196L217 38.2096C216.95 38.3296 216.78 38.4996 216.68 38.5096L212.33 38.4896H212.31Z" fill="#4B5F74"/>
<path d="M124.44 46.7695H126.43C126.7 46.7695 126.96 46.7995 127.22 46.8595C127.48 46.9195 127.7 47.0095 127.9 47.1395C128.1 47.2695 128.25 47.4395 128.37 47.6495C128.49 47.8595 128.55 48.1195 128.55 48.4195C128.55 48.8395 128.43 49.1795 128.2 49.4395C127.97 49.6995 127.64 49.8795 127.24 49.9695L128.77 52.5095H127.54L126.21 50.0795H125.46V52.5095H124.44V46.7695ZM126.3 49.2395C126.45 49.2395 126.59 49.2295 126.74 49.2095C126.89 49.1895 127.02 49.1495 127.13 49.0895C127.25 49.0295 127.34 48.9495 127.42 48.8295C127.5 48.7195 127.53 48.5795 127.53 48.3995C127.53 48.2395 127.49 48.1195 127.42 48.0195C127.35 47.9195 127.26 47.8395 127.15 47.7795C127.04 47.7195 126.92 47.6795 126.78 47.6595C126.64 47.6395 126.51 47.6295 126.38 47.6295H125.46V49.2395H126.3Z" fill="#CABB9F"/>
<path d="M134.56 46.7695H138.36V47.6595H135.58V49.1195H138.21V49.9795H135.58V51.5995H138.51V52.5095H134.56V46.7695Z" fill="#CABB9F"/>
<path d="M147.45 47.9691C147.34 47.8291 147.19 47.7091 146.99 47.6191C146.79 47.5291 146.59 47.4791 146.39 47.4791C146.27 47.4791 146.15 47.4991 146.03 47.5191C145.91 47.5491 145.8 47.5991 145.71 47.6591C145.61 47.7191 145.53 47.7991 145.47 47.8991C145.41 47.9991 145.38 48.1191 145.38 48.2591C145.38 48.3891 145.41 48.4991 145.46 48.5891C145.51 48.6791 145.59 48.7591 145.68 48.8191C145.77 48.8891 145.89 48.9391 146.02 48.9891C146.15 49.0391 146.3 49.0891 146.47 49.1391C146.65 49.1991 146.84 49.2691 147.04 49.3391C147.24 49.4191 147.42 49.5191 147.58 49.6391C147.74 49.7591 147.88 49.9191 147.99 50.1091C148.1 50.2991 148.15 50.5291 148.15 50.8091C148.15 51.1191 148.09 51.3891 147.98 51.6191C147.87 51.8491 147.72 52.0391 147.53 52.1891C147.34 52.3391 147.12 52.4491 146.87 52.5291C146.62 52.6091 146.35 52.6391 146.07 52.6391C145.7 52.6391 145.33 52.5691 144.98 52.4291C144.62 52.2891 144.33 52.0891 144.1 51.8191L144.83 51.1391C144.97 51.3291 145.16 51.4891 145.39 51.5991C145.62 51.7091 145.86 51.7691 146.08 51.7691C146.2 51.7691 146.32 51.7591 146.45 51.7291C146.57 51.6991 146.69 51.6491 146.79 51.5791C146.89 51.5091 146.97 51.4191 147.03 51.3191C147.09 51.2191 147.12 51.0791 147.12 50.9291C147.12 50.7791 147.09 50.6491 147.01 50.5491C146.94 50.4491 146.85 50.3591 146.73 50.2891C146.61 50.2191 146.47 50.1491 146.31 50.0991C146.15 50.0491 145.98 49.9891 145.8 49.9291C145.63 49.8791 145.45 49.8091 145.28 49.7391C145.11 49.6591 144.95 49.5591 144.81 49.4391C144.67 49.3191 144.56 49.1591 144.47 48.9791C144.38 48.7991 144.34 48.5691 144.34 48.2991C144.34 48.0091 144.4 47.7591 144.52 47.5491C144.64 47.3391 144.8 47.1691 145 47.0291C145.2 46.8891 145.42 46.7891 145.67 46.7191C145.92 46.6491 146.18 46.6191 146.44 46.6191C146.73 46.6191 147.03 46.6691 147.33 46.7691C147.63 46.8691 147.89 47.0291 148.11 47.2291L147.45 47.9591V47.9691Z" fill="#CABB9F"/>
<path d="M153.93 49.6209C153.93 49.1609 154.01 48.7509 154.16 48.3809C154.31 48.0109 154.53 47.7009 154.8 47.4409C155.07 47.1809 155.4 46.9809 155.77 46.8409C156.15 46.7009 156.55 46.6309 157 46.6309C157.45 46.6309 157.86 46.7009 158.24 46.8409C158.62 46.9809 158.95 47.1809 159.22 47.4409C159.5 47.7009 159.71 48.0109 159.86 48.3809C160.01 48.7509 160.09 49.1609 160.09 49.6209C160.09 50.0809 160.01 50.4809 159.86 50.8509C159.71 51.2209 159.49 51.5409 159.22 51.8109C158.94 52.0809 158.62 52.2909 158.24 52.4309C157.86 52.5809 157.45 52.6509 157 52.6509C156.55 52.6509 156.15 52.5809 155.77 52.4309C155.39 52.2809 155.07 52.0709 154.8 51.8109C154.53 51.5409 154.31 51.2209 154.16 50.8509C154.01 50.4809 153.93 50.0709 153.93 49.6209ZM155.04 49.6209C155.04 49.9309 155.09 50.2109 155.18 50.4709C155.27 50.7309 155.41 50.9509 155.59 51.1409C155.77 51.3309 155.97 51.4809 156.21 51.5809C156.45 51.6809 156.72 51.7409 157.01 51.7409C157.3 51.7409 157.57 51.6909 157.81 51.5809C158.05 51.4709 158.26 51.3309 158.44 51.1409C158.62 50.9509 158.75 50.7309 158.84 50.4709C158.93 50.2109 158.98 49.9309 158.98 49.6209C158.98 49.3109 158.93 49.0509 158.84 48.7909C158.75 48.5309 158.61 48.3109 158.44 48.1309C158.27 47.9409 158.06 47.7909 157.82 47.6809C157.58 47.5709 157.31 47.5209 157.01 47.5209C156.71 47.5209 156.44 47.5709 156.2 47.6809C155.96 47.7909 155.75 47.9409 155.58 48.1309C155.41 48.3209 155.27 48.5409 155.18 48.7909C155.09 49.0409 155.04 49.3209 155.04 49.6209Z" fill="#CABB9F"/>
<path d="M166.11 46.7695H168.1C168.37 46.7695 168.63 46.7995 168.89 46.8595C169.14 46.9195 169.37 47.0095 169.57 47.1395C169.77 47.2695 169.93 47.4395 170.04 47.6495C170.15 47.8595 170.22 48.1195 170.22 48.4195C170.22 48.8395 170.1 49.1795 169.87 49.4395C169.64 49.6995 169.31 49.8795 168.91 49.9695L170.44 52.5095H169.21L167.88 50.0795H167.13V52.5095H166.11V46.7695ZM167.97 49.2395C168.12 49.2395 168.26 49.2295 168.41 49.2095C168.56 49.1895 168.69 49.1495 168.8 49.0895C168.92 49.0295 169.01 48.9495 169.09 48.8295C169.17 48.7095 169.2 48.5795 169.2 48.3995C169.2 48.2395 169.17 48.1195 169.09 48.0195C169.02 47.9195 168.93 47.8395 168.82 47.7795C168.71 47.7195 168.59 47.6795 168.45 47.6595C168.31 47.6395 168.18 47.6295 168.05 47.6295H167.13V49.2395H167.96H167.97Z" fill="#CABB9F"/>
<path d="M177.29 47.6595H175.53V46.7695H180.07V47.6595H178.31V52.5095H177.29V47.6595Z" fill="#CABB9F"/>
</g>
<defs>
<clipPath id="clip0_3266_120">
<rect width="218" height="79" fill="white"/>
</clipPath>
</defs>
</svg>
