<svg width="29" height="29" viewBox="0 0 29 29" fill="none" xmlns="http://www.w3.org/2000/svg">
<g clip-path="url(#clip0_32_2108)">
<path d="M17.0545 16.0807C16.3404 12.4351 11.6684 12.4468 10.9566 16.0803C10.5899 17.9461 9.03767 17.8337 8.60593 19.8023C8.23807 21.4794 9.4867 22.6168 11.1527 22.6168C11.4608 22.6168 14.1792 21.9953 16.177 22.5334C16.9283 22.736 18.1132 22.5822 18.8295 21.8983C19.743 21.0263 19.4046 19.8016 19.399 19.8016C18.9671 17.8337 17.419 17.9474 17.0545 16.0807ZM11.4031 20.9496C11.1416 21.0206 10.0188 21.0184 10.2085 20.1537C10.473 18.9471 12.0884 18.8286 12.5665 16.3961C12.819 15.1071 13.6701 15.0099 13.9198 15.0099C14.8568 15.0099 15.2851 15.5822 15.4444 16.3956C15.9193 18.8286 17.5315 18.9452 17.7969 20.1537C18.0714 21.9389 14.9495 19.9945 11.4031 20.9496Z" fill="black"/>
<path d="M11.4706 13.3166C13.2178 13.3166 14.3259 11.4454 13.7673 9.53052C13.0222 6.97644 10.0767 6.38749 8.92807 8.47009C7.81659 10.485 9.29999 13.3166 11.4706 13.3166ZM10.3647 9.26263C11.0797 7.96659 12.8568 9.88876 12.1021 11.2559C11.3858 12.5535 9.60931 10.6317 10.3647 9.26263Z" fill="black"/>
<path d="M16.9845 13.3166C20.1195 13.3166 21.0581 8.13841 18.0798 7.28734C16.7237 6.89983 15.1803 7.82845 14.6842 9.5306C14.1312 11.4269 15.2132 13.3166 16.9845 13.3166ZM16.2593 9.98967C16.5656 8.93865 17.619 8.41185 18.0873 9.26058C18.6591 10.2966 17.7128 11.9106 16.8076 11.6519C16.224 11.4852 16.0736 10.6261 16.2593 9.98967Z" fill="black"/>
<path d="M10.0501 16.8062C11.0565 14.4104 8.67076 11.4847 6.39183 12.4054C3.64634 13.5145 4.85823 18.2971 7.87566 18.2971C8.76604 18.2971 9.6342 17.7959 10.0501 16.8062ZM8.53746 16.1709C7.96645 17.5302 5.98915 15.8088 6.59562 14.3656C7.15703 13.0285 9.15312 14.7055 8.53746 16.1709Z" fill="black"/>
<path d="M23.127 13.9343C22.5406 12.5394 21.0021 12.0448 19.6674 12.7895C17.0546 14.2471 17.4993 18.5014 20.3337 18.5014C22.4214 18.5016 23.9676 15.9336 23.127 13.9343ZM21.568 15.8399C21.1506 16.8526 20.046 17.2626 19.6732 16.3775C19.2767 15.4363 20.0709 14.0824 20.9445 14.0824C21.6936 14.0824 21.8778 15.0883 21.568 15.8399Z" fill="black"/>
<path d="M24.005 5.0087C21.3607 2.36447 17.8449 0.908203 14.1055 0.908203C10.366 0.908203 6.85019 2.36447 4.20596 5.0087C1.56174 7.65292 0.105469 11.1687 0.105469 14.9082C0.105469 18.6477 1.56174 22.1635 4.20596 24.8077C6.85019 27.4519 10.366 28.9082 14.1055 28.9082C17.8449 28.9082 21.3607 27.4519 24.005 24.8077C26.6492 22.1635 28.1055 18.6477 28.1055 14.9082C28.1055 11.1687 26.6492 7.65292 24.005 5.0087ZM22.8448 23.6475C18.015 28.4775 10.1968 28.4784 5.36615 23.6475C0.536133 18.8177 0.535278 10.9995 5.36615 6.16888C10.196 1.33887 18.0143 1.33801 22.8448 6.16888C27.6748 10.9987 27.6757 18.8169 22.8448 23.6475Z" fill="black"/>
</g>
<defs>
<clipPath id="clip0_32_2108">
<rect width="28" height="28" fill="white" transform="translate(0.105469 0.908203)"/>
</clipPath>
</defs>
</svg>
