<svg width="29" height="29" viewBox="0 0 29 29" fill="none" xmlns="http://www.w3.org/2000/svg">
<path d="M14.3398 1.00279C14.8679 0.803137 15.5012 0.933102 15.9066 1.32632C16.3567 1.75603 16.495 2.45232 16.2705 3.02915C19.1557 3.43121 21.7993 5.23027 23.2471 7.75548C24.0319 9.07726 24.465 10.592 24.5606 12.1229C24.8128 12.124 25.0661 12.1079 25.3178 12.1295C25.5782 12.1406 25.7967 12.3878 25.7851 12.6461C25.7856 13.5708 25.3736 14.4855 24.679 15.0972C24.0618 15.6568 23.2278 15.9643 22.3955 15.9505C17.3622 15.9505 12.3289 15.9511 7.29564 15.9505C6.26974 15.9649 5.24827 15.476 4.6272 14.6575C4.19195 14.0812 3.93755 13.365 3.94087 12.6405C3.92704 12.3961 4.12558 12.161 4.36892 12.1345C4.63383 12.1041 4.90151 12.1262 5.16697 12.1207C5.24993 10.461 5.77421 8.82452 6.67402 7.42697C7.66342 5.87623 9.09857 4.61196 10.7638 3.83217C11.6188 3.43951 12.5241 3.16188 13.4555 3.02472C13.3377 2.68681 13.2967 2.31129 13.4118 1.96675C13.5462 1.52265 13.9045 1.15875 14.3398 1.00279ZM14.6749 2.00491C14.311 2.13598 14.3038 2.7023 14.6523 2.85604C14.9564 3.03025 15.3823 2.76534 15.3519 2.41471C15.3485 2.08842 14.9653 1.86056 14.6749 2.00491ZM13.8194 4.01246C12.4948 4.17616 11.2112 4.65123 10.0957 5.38291C9.18153 6.0167 8.36247 6.79815 7.73034 7.71621C6.84159 9.01034 6.29684 10.5489 6.21942 12.1201C11.9882 12.1207 17.7571 12.1207 23.5259 12.1201C23.4324 10.9709 23.1542 9.83106 22.641 8.7952C21.9939 7.49831 21.0322 6.35185 19.8376 5.52726C19.0269 4.94434 18.1049 4.52845 17.1487 4.24972C16.0658 3.96545 14.9315 3.8836 13.8194 4.01246ZM5.04419 13.1598C5.27205 14.1282 6.1796 14.9058 7.18503 14.9141C12.2354 14.913 17.2864 14.9136 22.3374 14.9136C22.73 14.9152 23.131 14.861 23.4816 14.673C24.0933 14.3898 24.5302 13.8064 24.6989 13.1609C18.1475 13.1549 11.5956 13.1571 5.04419 13.1598Z" fill="black"/>
<path d="M12.1232 5.8629C12.4655 5.68924 12.9079 6.01775 12.8421 6.39493C12.8211 6.64933 12.5877 6.79533 12.3743 6.88161C11.0779 7.43742 9.98343 8.44839 9.33139 9.69938C9.24401 9.85976 9.15165 10.0456 8.96804 10.1119C8.69705 10.217 8.35969 10.0511 8.28945 9.76685C8.22088 9.57715 8.31877 9.38967 8.40836 9.22652C9.19922 7.71615 10.5381 6.49503 12.1232 5.8629Z" fill="black"/>
<path d="M10.2246 16.9702C11.2272 16.7036 12.3107 16.6594 13.3078 16.9757C15.1389 17.682 16.9905 18.3777 18.924 18.7477C19.3393 18.8379 19.7613 18.8909 20.1844 18.9258C20.634 18.9617 21.0665 19.2089 21.3059 19.5944C21.5996 20.0363 21.6588 20.5943 21.583 21.1098C22.1897 20.9256 22.792 20.6883 23.2975 20.2973C24.2011 19.6127 25.1701 18.9993 26.2319 18.5906C26.7916 18.4065 27.4442 18.4535 27.9442 18.7803C28.6908 19.2244 29.0608 20.2066 28.7826 21.0318C28.6592 21.4294 28.3954 21.7707 28.0802 22.0372C26.4122 23.4995 24.4672 24.6835 22.3269 25.303C20.9736 25.7122 19.5462 25.8245 18.1381 25.7813C16.1222 25.7354 14.1573 25.2311 12.1591 25.0192C11.3002 24.9529 10.4082 24.9468 9.59409 25.2681C9.73567 25.5657 10.026 25.8372 9.97459 26.1912C9.94085 26.4306 9.70857 26.5423 9.51998 26.6463C8.37297 27.3061 7.22871 27.9697 6.08391 28.6329C5.89145 28.7385 5.70231 28.8889 5.47113 28.8806C5.27591 28.8856 5.12769 28.7296 5.03589 28.5737C3.68314 26.2188 2.32043 23.87 0.963256 21.5179C0.796789 21.2707 0.87145 20.9013 1.13968 20.7597C2.43491 20.0075 3.73291 19.2598 5.02925 18.5088C5.2206 18.381 5.49491 18.3744 5.66857 18.5381C5.84444 18.7118 5.9379 18.9474 6.06234 19.157C6.78241 18.5364 7.60091 18.0321 8.45979 17.6267C9.02445 17.3513 9.61124 17.1135 10.2246 16.9702ZM10.4187 17.9884C9.10354 18.3479 7.88794 19.0193 6.81559 19.8532C6.73484 19.9113 6.64193 19.9489 6.55234 19.9904C7.39684 21.4377 8.23028 22.8917 9.0698 24.3418C9.52994 24.1659 10.0045 24.0182 10.4972 23.9751C11.9456 23.8191 13.3858 24.1277 14.811 24.3467C14.8292 24.3495 14.8657 24.3556 14.8834 24.3584C15.5963 24.4811 16.3142 24.5696 17.0315 24.6587C18.6734 24.8107 20.3586 24.7892 21.9519 24.3224C24.0109 23.7273 25.8841 22.5881 27.4813 21.1728C27.7263 20.9732 27.8656 20.6507 27.8253 20.3355C27.7738 19.8344 27.2656 19.4108 26.7573 19.5181C26.311 19.6226 25.9128 19.8615 25.5096 20.0717C24.9173 20.4052 24.3571 20.7934 23.8146 21.2021C22.5791 22.035 21.082 22.3525 19.6219 22.5062C18.174 22.6544 16.7118 22.6539 15.2634 22.5134C14.9172 22.4714 14.7192 22.0328 14.8989 21.7391C14.9973 21.5511 15.2147 21.4615 15.421 21.4853C16.985 21.6053 18.5678 21.6429 20.1241 21.4106C20.4487 21.3067 20.6257 20.94 20.5831 20.6137C20.5721 20.3399 20.4426 19.9887 20.1302 19.9533C19.5445 19.8848 18.9583 19.8129 18.3831 19.6801C16.74 19.3013 15.1306 18.7831 13.5655 18.1576C13.1944 18.0105 12.8123 17.88 12.4146 17.828C11.7471 17.7412 11.0674 17.823 10.4187 17.9884ZM2.09811 21.3979C3.29988 23.4801 4.50164 25.5629 5.70452 27.6446C6.71936 27.0539 7.73807 26.4704 8.74904 25.8732C7.53953 23.8014 6.34882 21.7187 5.1465 19.6425C4.12944 20.2266 3.11405 20.8128 2.09811 21.3979Z" fill="black"/>
</svg>
