<svg width="21" height="20" viewBox="0 0 21 20" fill="none" xmlns="http://www.w3.org/2000/svg">
<path d="M18.25 2.5V1.5H19.25V2.5H18.25ZM10.6238 11.5404C10.2332 11.931 9.60008 11.931 9.20956 11.5404C8.81904 11.1499 8.81904 10.5168 9.20956 10.1262L10.6238 11.5404ZM17.25 9.16667V2.5H19.25V9.16667H17.25ZM18.25 3.5H11.5833V1.5H18.25V3.5ZM18.9571 3.20711L10.6238 11.5404L9.20956 10.1262L17.5429 1.79289L18.9571 3.20711Z" fill="white"/>
<path d="M17.4167 12.5V12.5C17.4167 13.5856 17.4167 14.1284 17.2778 14.5688C16.9835 15.5023 16.2523 16.2335 15.3188 16.5278C14.8784 16.6666 14.3356 16.6666 13.25 16.6666H10.0833C7.25491 16.6666 5.8407 16.6666 4.96202 15.788C4.08334 14.9093 4.08334 13.4951 4.08334 10.6666V7.49998C4.08334 6.41437 4.08334 5.87157 4.22219 5.4312C4.51652 4.4977 5.24773 3.76649 6.18122 3.47216C6.62159 3.33331 7.1644 3.33331 8.25001 3.33331V3.33331" stroke="white" stroke-width="2" stroke-linecap="round"/>
</svg>
