<svg width="16" height="17" viewBox="0 0 16 17" fill="none" xmlns="http://www.w3.org/2000/svg">
<path d="M6.87154 5.2234C7.29959 4.15627 7.51361 3.62271 7.86133 3.54876C7.95276 3.52932 8.04726 3.52932 8.13869 3.54876C8.48641 3.62271 8.70043 4.15627 9.12848 5.2234C9.3719 5.83025 9.49362 6.13368 9.72136 6.34006C9.78524 6.39794 9.85458 6.4495 9.92841 6.494C10.1916 6.65265 10.5202 6.68208 11.1774 6.74093C12.2899 6.84057 12.8462 6.89038 13.016 7.20755C13.0512 7.27323 13.0751 7.34435 13.0868 7.41795C13.1431 7.7733 12.7342 8.14534 11.9163 8.88942L11.6892 9.09605C11.3069 9.44392 11.1157 9.61786 11.0051 9.83492C10.9388 9.96514 10.8943 10.1054 10.8734 10.25C10.8387 10.4911 10.8947 10.7435 11.0067 11.2481L11.0467 11.4284C11.2475 12.3334 11.3479 12.786 11.2225 13.0084C11.11 13.2082 10.9026 13.3361 10.6735 13.347C10.4185 13.3592 10.0592 13.0664 9.34053 12.4808C8.86706 12.095 8.63032 11.9021 8.36752 11.8267C8.12735 11.7579 7.87267 11.7579 7.6325 11.8267C7.3697 11.9021 7.13296 12.095 6.65949 12.4808C5.94084 13.0664 5.58151 13.3592 5.3265 13.347C5.09743 13.3361 4.89007 13.2082 4.77749 13.0084C4.65216 12.786 4.75256 12.3334 4.95336 11.4284L4.99336 11.2481C5.10533 10.7435 5.16132 10.4911 5.12657 10.25C5.10573 10.1054 5.06126 9.96514 4.99492 9.83492C4.88434 9.61786 4.69316 9.44392 4.31079 9.09605L4.08368 8.88942C3.26582 8.14534 2.85689 7.7733 2.91321 7.41795C2.92487 7.34435 2.94879 7.27323 2.98397 7.20755C3.15384 6.89038 3.71009 6.84057 4.8226 6.74093C5.47979 6.68208 5.80838 6.65265 6.07161 6.494C6.14544 6.4495 6.21478 6.39794 6.27866 6.34006C6.5064 6.13368 6.62811 5.83025 6.87154 5.2234Z" fill="#BEBFC2"/>
</svg>
