<svg width="19" height="18" viewBox="0 0 19 18" fill="none" xmlns="http://www.w3.org/2000/svg">
<path d="M8.23046 5.41465C8.71202 4.21414 8.9528 3.61388 9.34398 3.53069C9.44684 3.50881 9.55315 3.50881 9.65601 3.53069C10.0472 3.61388 10.288 4.21414 10.7695 5.41465C11.0434 6.09736 11.1803 6.43872 11.4365 6.67089C11.5084 6.73602 11.5864 6.79402 11.6694 6.84408C11.9656 7.02256 12.3352 7.05567 13.0746 7.12188C14.3262 7.23397 14.9519 7.29001 15.143 7.64682C15.1826 7.72072 15.2095 7.80073 15.2226 7.88352C15.286 8.28329 14.826 8.70184 13.9059 9.53893L13.6504 9.77139C13.2202 10.1627 13.0051 10.3584 12.8807 10.6026C12.8061 10.7491 12.7561 10.9069 12.7326 11.0696C12.6935 11.3409 12.7565 11.6247 12.8825 12.1925L12.9275 12.3953C13.1534 13.4135 13.2663 13.9225 13.1253 14.1728C12.9987 14.3975 12.7654 14.5414 12.5077 14.5537C12.2208 14.5674 11.8166 14.238 11.0081 13.5792C10.4754 13.1452 10.2091 12.9282 9.91344 12.8434C9.64325 12.7659 9.35674 12.7659 9.08655 12.8434C8.79089 12.9282 8.52456 13.1452 7.99191 13.5792C7.18343 14.238 6.77918 14.5674 6.49229 14.5537C6.23459 14.5414 6.00131 14.3975 5.87466 14.1728C5.73367 13.9225 5.84661 13.4135 6.07251 12.3953L6.11752 12.1925C6.24348 11.6247 6.30646 11.3409 6.26738 11.0696C6.24393 10.9069 6.1939 10.7491 6.11927 10.6026C5.99487 10.3584 5.77979 10.1627 5.34963 9.77139L5.09412 9.53893C4.17403 8.70184 3.71399 8.28329 3.77734 7.88352C3.79046 7.80073 3.81737 7.72072 3.85695 7.64682C4.04805 7.29001 4.67384 7.23397 5.92541 7.12188C6.66475 7.05567 7.03442 7.02256 7.33054 6.84408C7.41361 6.79402 7.49162 6.73602 7.56348 6.67089C7.81969 6.43872 7.95661 6.09736 8.23046 5.41465Z" fill="#FAC232"/>
</svg>
