<svg width="29" height="29" viewBox="0 0 29 29" fill="none" xmlns="http://www.w3.org/2000/svg">
<g clip-path="url(#clip0_32_2084)">
<path d="M24.7745 5.01065C22.1303 2.36642 18.6145 0.910156 14.875 0.910156C11.1355 0.910156 7.61972 2.36642 4.97549 5.01065C2.33127 7.65488 0.875 11.1707 0.875 14.9102C0.875 18.6496 2.33127 22.1654 4.97549 24.8097C7.61972 27.4539 11.1355 28.9102 14.875 28.9102C18.6145 28.9102 22.1303 27.4539 24.7745 24.8097C27.4187 22.1654 28.875 18.6496 28.875 14.9102C28.875 11.1707 27.4187 7.65488 24.7745 5.01065ZM14.875 27.2695C8.04333 27.2695 2.51562 21.7408 2.51562 14.9102C2.51562 8.07849 8.0444 2.55078 14.875 2.55078C21.7067 2.55078 27.2344 8.07956 27.2344 14.9102C27.2344 21.7418 21.7056 27.2695 14.875 27.2695Z" fill="#202236"/>
<path d="M9.53952 14.5284C9.21909 14.8488 9.21909 15.3681 9.53952 15.6886C9.85974 16.0088 10.3793 16.0088 10.6997 15.6886C13.034 13.3543 16.8322 13.3541 19.1664 15.6886C19.4869 16.0088 20.01 16.012 20.3303 15.6916C20.6507 15.3711 20.6468 14.8488 20.3266 14.5284C17.3526 11.5543 12.5134 11.5543 9.53952 14.5284Z" fill="#202236"/>
<path d="M17.9054 16.9665C16.2712 15.3321 13.6118 15.3321 11.9774 16.9665C11.657 17.287 11.657 17.8063 11.9774 18.1265C12.2976 18.447 12.8171 18.447 13.1376 18.1265C14.1311 17.133 15.747 17.1321 16.742 18.1233C16.7427 18.124 16.7431 18.1244 16.7438 18.125C17.064 18.4455 17.5871 18.4485 17.9074 18.1282C18.2272 17.8084 18.2239 17.2872 17.9052 16.9668L17.9054 16.9665Z" fill="#202236"/>
<path d="M15.7618 19.9304C15.7618 20.3835 15.3946 20.7507 14.9415 20.7507C14.4884 20.7507 14.1212 20.3835 14.1212 19.9304C14.1212 19.4773 14.4884 19.1101 14.9415 19.1101C15.3946 19.1101 15.7618 19.4773 15.7618 19.9304Z" fill="#202236"/>
<path d="M22.6095 12.2455C18.3814 8.01746 11.5019 8.01746 7.2739 12.2455C6.95368 12.5657 6.94705 13.0865 7.26728 13.4069C7.58771 13.7272 8.11365 13.7259 8.43408 13.4054C12.0223 9.81723 17.8611 9.81723 21.4493 13.4054C21.7697 13.7259 22.289 13.7259 22.6095 13.4054C22.9299 13.0852 22.9299 12.5657 22.6095 12.2455Z" fill="#202236"/>
</g>
<defs>
<clipPath id="clip0_32_2084">
<rect width="28" height="28" fill="white" transform="translate(0.875 0.910156)"/>
</clipPath>
</defs>
</svg>
